<svg width="25" height="24" viewBox="0 0 25 24" fill="none" xmlns="http://www.w3.org/2000/svg">
<path fill-rule="evenodd" clip-rule="evenodd" d="M10.707 10.293C10.6148 10.1975 10.5044 10.1213 10.3824 10.0689C10.2604 10.0165 10.1292 9.98891 9.9964 9.98776C9.86362 9.9866 9.73194 10.0119 9.60905 10.0622C9.48615 10.1125 9.3745 10.1867 9.28061 10.2806C9.18671 10.3745 9.11246 10.4862 9.06218 10.6091C9.0119 10.732 8.9866 10.8636 8.98775 10.9964C8.9889 11.1292 9.01649 11.2604 9.0689 11.3824C9.12131 11.5044 9.19749 11.6148 9.293 11.707L11.086 13.5L9.293 15.293C9.19749 15.3853 9.12131 15.4956 9.0689 15.6176C9.01649 15.7396 8.9889 15.8708 8.98775 16.0036C8.9866 16.1364 9.0119 16.2681 9.06218 16.391C9.11246 16.5139 9.18671 16.6255 9.28061 16.7194C9.3745 16.8133 9.48615 16.8876 9.60905 16.9378C9.73194 16.9881 9.86362 17.0134 9.9964 17.0123C10.1292 17.0111 10.2604 16.9835 10.3824 16.9311C10.5044 16.8787 10.6148 16.8025 10.707 16.707L12.5 14.914L14.293 16.707C14.4816 16.8892 14.7342 16.99 14.9964 16.9877C15.2586 16.9854 15.5094 16.8802 15.6948 16.6948C15.8802 16.5094 15.9854 16.2586 15.9877 15.9964C15.99 15.7342 15.8892 15.4816 15.707 15.293L13.914 13.5L15.707 11.707C15.8892 11.5184 15.99 11.2658 15.9877 11.0036C15.9854 10.7414 15.8802 10.4906 15.6948 10.3052C15.5094 10.1198 15.2586 10.0146 14.9964 10.0123C14.7342 10.0101 14.4816 10.1109 14.293 10.293L12.5 12.086L10.707 10.293ZM12.982 2.00001C13.661 1.99901 14.263 1.99801 14.82 2.22801C15.376 2.45801 15.801 2.88601 16.28 3.36601C17.23 4.31901 18.181 5.27001 19.134 6.21901C19.614 6.69901 20.041 7.12401 20.272 7.68001C20.502 8.23701 20.502 8.84001 20.5 9.51801C20.496 12.034 20.5 14.55 20.5 17.066C20.5 17.952 20.5 18.716 20.418 19.328C20.33 19.983 20.131 20.612 19.621 21.121C19.111 21.631 18.483 21.83 17.828 21.918C17.216 22 16.452 22 15.566 22H9.434C8.548 22 7.784 22 7.172 21.918C6.517 21.83 5.888 21.631 5.379 21.121C4.869 20.611 4.67 19.983 4.582 19.328C4.5 18.716 4.5 17.952 4.5 17.066V6.93401C4.5 6.04801 4.5 5.28401 4.582 4.67201C4.67 4.01701 4.869 3.38801 5.379 2.87901C5.889 2.36901 6.517 2.17001 7.172 2.08201C7.784 2.00001 8.548 2.00001 9.434 2.00001C10.617 2.00001 11.799 2.00201 12.982 2.00001Z" fill="white" fill-opacity="0.5"/>
</svg>
