<svg width="25" height="24" viewBox="0 0 25 24" fill="none" xmlns="http://www.w3.org/2000/svg">
<path fill-rule="evenodd" clip-rule="evenodd" d="M21.274 8.1C22.884 6.484 22.815 4.362 21.613 3.062C21.3105 2.73494 20.9452 2.47231 20.5388 2.28982C20.1324 2.10734 19.6934 2.00876 19.248 2C18.299 1.978 17.317 2.34 16.41 3.099C16.3867 3.1183 16.3644 3.13865 16.343 3.16L3.374 16.181C2.81368 16.7438 2.49937 17.5058 2.5 18.3V19.993C2.5 21.094 3.392 22 4.504 22H6.183C6.57789 21.9999 6.96887 21.9219 7.33353 21.7703C7.69819 21.6188 8.02934 21.3968 8.308 21.117L21.274 8.1ZM17.707 5.793C17.6148 5.69749 17.5044 5.62131 17.3824 5.5689C17.2604 5.51649 17.1292 5.4889 16.9964 5.48775C16.8636 5.48659 16.7319 5.5119 16.609 5.56218C16.4862 5.61246 16.3745 5.68671 16.2806 5.7806C16.1867 5.8745 16.1125 5.98615 16.0622 6.10905C16.0119 6.23194 15.9866 6.36362 15.9878 6.4964C15.9889 6.62918 16.0165 6.7604 16.0689 6.8824C16.1213 7.00441 16.1975 7.11475 16.293 7.207L17.293 8.207C17.3852 8.30251 17.4956 8.37869 17.6176 8.4311C17.7396 8.48351 17.8708 8.5111 18.0036 8.51225C18.1364 8.5134 18.2681 8.4881 18.391 8.43782C18.5139 8.38754 18.6255 8.31329 18.7194 8.21939C18.8133 8.1255 18.8875 8.01385 18.9378 7.89095C18.9881 7.76806 19.0134 7.63638 19.0123 7.5036C19.0111 7.37082 18.9835 7.2396 18.9311 7.11759C18.8787 6.99559 18.8025 6.88525 18.707 6.793L17.707 5.793Z" fill="white" fill-opacity="0.5"/>
</svg>
