<svg width="302" height="15" viewBox="0 0 302 15" fill="none" xmlns="http://www.w3.org/2000/svg">
<path d="M0.903409 12V11.233L3.78409 8.07955C4.12216 7.71023 4.40057 7.3892 4.61932 7.11648C4.83807 6.84091 5 6.58239 5.10511 6.34091C5.21307 6.09659 5.26705 5.84091 5.26705 5.57386C5.26705 5.26705 5.19318 5.00142 5.04545 4.77699C4.90057 4.55256 4.7017 4.37926 4.44886 4.2571C4.19602 4.13494 3.91193 4.07386 3.59659 4.07386C3.26136 4.07386 2.96875 4.14347 2.71875 4.28267C2.47159 4.41903 2.27983 4.6108 2.14347 4.85795C2.00994 5.10511 1.94318 5.39489 1.94318 5.72727H0.9375C0.9375 5.21591 1.0554 4.76705 1.29119 4.38068C1.52699 3.99432 1.84801 3.69318 2.25426 3.47727C2.66335 3.26136 3.12216 3.15341 3.63068 3.15341C4.14205 3.15341 4.59517 3.26136 4.99006 3.47727C5.38494 3.69318 5.6946 3.98437 5.91903 4.35085C6.14347 4.71733 6.25568 5.125 6.25568 5.57386C6.25568 5.89489 6.19744 6.20881 6.08097 6.51562C5.96733 6.8196 5.76847 7.15909 5.48438 7.53409C5.20312 7.90625 4.8125 8.3608 4.3125 8.89773L2.35227 10.9943V11.0625H6.40909V12H0.903409ZM11.0156 12.1193C10.3736 12.1193 9.8267 11.9446 9.375 11.5952C8.9233 11.2429 8.57813 10.733 8.33949 10.0653C8.10085 9.39489 7.98153 8.58523 7.98153 7.63636C7.98153 6.69318 8.10085 5.88778 8.33949 5.22017C8.58097 4.54972 8.92756 4.03835 9.37926 3.68608C9.83381 3.33097 10.3793 3.15341 11.0156 3.15341C11.652 3.15341 12.196 3.33097 12.6477 3.68608C13.1023 4.03835 13.4489 4.54972 13.6875 5.22017C13.929 5.88778 14.0497 6.69318 14.0497 7.63636C14.0497 8.58523 13.9304 9.39489 13.6918 10.0653C13.4531 10.733 13.108 11.2429 12.6562 11.5952C12.2045 11.9446 11.6577 12.1193 11.0156 12.1193ZM11.0156 11.1818C11.652 11.1818 12.1463 10.875 12.4986 10.2614C12.8509 9.64773 13.027 8.77273 13.027 7.63636C13.027 6.88068 12.946 6.23722 12.7841 5.70597C12.625 5.17472 12.3949 4.76989 12.0938 4.49148C11.7955 4.21307 11.4361 4.07386 11.0156 4.07386C10.3849 4.07386 9.89205 4.38494 9.53693 5.0071C9.18182 5.62642 9.00426 6.50284 9.00426 7.63636C9.00426 8.39205 9.08381 9.03409 9.2429 9.5625C9.40199 10.0909 9.63068 10.4929 9.92898 10.7685C10.2301 11.044 10.5923 11.1818 11.0156 11.1818ZM18.7372 3.27273V12H17.6804V4.38068H17.6293L15.4986 5.79545V4.72159L17.6804 3.27273H18.7372ZM21.5199 12L25.4233 4.27841V4.21023H20.9233V3.27273H26.5142V4.26136L22.6278 12H21.5199Z" fill="#AAB1B7"/>
<path d="M54.9034 12V11.233L57.7841 8.07955C58.1222 7.71023 58.4006 7.3892 58.6193 7.11648C58.8381 6.84091 59 6.58239 59.1051 6.34091C59.2131 6.09659 59.267 5.84091 59.267 5.57386C59.267 5.26705 59.1932 5.00142 59.0455 4.77699C58.9006 4.55256 58.7017 4.37926 58.4489 4.2571C58.196 4.13494 57.9119 4.07386 57.5966 4.07386C57.2614 4.07386 56.9688 4.14347 56.7188 4.28267C56.4716 4.41903 56.2798 4.6108 56.1435 4.85795C56.0099 5.10511 55.9432 5.39489 55.9432 5.72727H54.9375C54.9375 5.21591 55.0554 4.76705 55.2912 4.38068C55.527 3.99432 55.848 3.69318 56.2543 3.47727C56.6634 3.26136 57.1222 3.15341 57.6307 3.15341C58.142 3.15341 58.5952 3.26136 58.9901 3.47727C59.3849 3.69318 59.6946 3.98437 59.919 4.35085C60.1435 4.71733 60.2557 5.125 60.2557 5.57386C60.2557 5.89489 60.1974 6.20881 60.081 6.51562C59.9673 6.8196 59.7685 7.15909 59.4844 7.53409C59.2031 7.90625 58.8125 8.3608 58.3125 8.89773L56.3523 10.9943V11.0625H60.4091V12H54.9034ZM65.0156 12.1193C64.3736 12.1193 63.8267 11.9446 63.375 11.5952C62.9233 11.2429 62.5781 10.733 62.3395 10.0653C62.1009 9.39489 61.9815 8.58523 61.9815 7.63636C61.9815 6.69318 62.1009 5.88778 62.3395 5.22017C62.581 4.54972 62.9276 4.03835 63.3793 3.68608C63.8338 3.33097 64.3793 3.15341 65.0156 3.15341C65.652 3.15341 66.196 3.33097 66.6477 3.68608C67.1023 4.03835 67.4489 4.54972 67.6875 5.22017C67.929 5.88778 68.0497 6.69318 68.0497 7.63636C68.0497 8.58523 67.9304 9.39489 67.6918 10.0653C67.4531 10.733 67.108 11.2429 66.6562 11.5952C66.2045 11.9446 65.6577 12.1193 65.0156 12.1193ZM65.0156 11.1818C65.652 11.1818 66.1463 10.875 66.4986 10.2614C66.8509 9.64773 67.027 8.77273 67.027 7.63636C67.027 6.88068 66.946 6.23722 66.7841 5.70597C66.625 5.17472 66.3949 4.76989 66.0938 4.49148C65.7955 4.21307 65.4361 4.07386 65.0156 4.07386C64.3849 4.07386 63.892 4.38494 63.5369 5.0071C63.1818 5.62642 63.0043 6.50284 63.0043 7.63636C63.0043 8.39205 63.0838 9.03409 63.2429 9.5625C63.402 10.0909 63.6307 10.4929 63.929 10.7685C64.2301 11.044 64.5923 11.1818 65.0156 11.1818ZM72.7372 3.27273V12H71.6804V4.38068H71.6293L69.4986 5.79545V4.72159L71.6804 3.27273H72.7372ZM78.0426 12.1193C77.4574 12.1193 76.9403 12.0156 76.4915 11.8082C76.0455 11.598 75.6974 11.3097 75.4474 10.9432C75.1974 10.5739 75.0739 10.1534 75.0767 9.68182C75.0739 9.3125 75.1463 8.97159 75.294 8.65909C75.4418 8.34375 75.6435 8.08097 75.8991 7.87074C76.1577 7.65767 76.446 7.52273 76.7642 7.46591V7.41477C76.3466 7.30682 76.0142 7.07244 75.767 6.71165C75.5199 6.34801 75.3977 5.93466 75.4006 5.47159C75.3977 5.02841 75.5099 4.6321 75.7372 4.28267C75.9645 3.93324 76.277 3.65767 76.6747 3.45597C77.0753 3.25426 77.5313 3.15341 78.0426 3.15341C78.5483 3.15341 79 3.25426 79.3977 3.45597C79.7955 3.65767 80.108 3.93324 80.3352 4.28267C80.5653 4.6321 80.6818 5.02841 80.6847 5.47159C80.6818 5.93466 80.5554 6.34801 80.3054 6.71165C80.0582 7.07244 79.7301 7.30682 79.321 7.41477V7.46591C79.6364 7.52273 79.9205 7.65767 80.1733 7.87074C80.4261 8.08097 80.6278 8.34375 80.7784 8.65909C80.929 8.97159 81.0057 9.3125 81.0085 9.68182C81.0057 10.1534 80.8778 10.5739 80.625 10.9432C80.375 11.3097 80.027 11.598 79.581 11.8082C79.1378 12.0156 78.625 12.1193 78.0426 12.1193ZM78.0426 11.1818C78.4375 11.1818 78.7784 11.1179 79.0653 10.9901C79.3523 10.8622 79.5739 10.6818 79.7301 10.4489C79.8864 10.2159 79.9659 9.94318 79.9688 9.63068C79.9659 9.30114 79.8807 9.00994 79.7131 8.7571C79.5455 8.50426 79.3168 8.3054 79.027 8.16051C78.7401 8.01562 78.4119 7.94318 78.0426 7.94318C77.6705 7.94318 77.3381 8.01562 77.0455 8.16051C76.7557 8.3054 76.527 8.50426 76.3594 8.7571C76.1946 9.00994 76.1136 9.30114 76.1165 9.63068C76.1136 9.94318 76.1889 10.2159 76.3423 10.4489C76.4986 10.6818 76.7216 10.8622 77.0114 10.9901C77.3011 11.1179 77.6449 11.1818 78.0426 11.1818ZM78.0426 7.03977C78.3551 7.03977 78.6321 6.97727 78.8736 6.85227C79.1179 6.72727 79.3097 6.55256 79.4489 6.32812C79.5881 6.10369 79.6591 5.84091 79.6619 5.53977C79.6591 5.24432 79.5895 4.98722 79.4531 4.76847C79.3168 4.54687 79.1278 4.37642 78.8864 4.2571C78.6449 4.13494 78.3636 4.07386 78.0426 4.07386C77.7159 4.07386 77.4304 4.13494 77.1861 4.2571C76.9418 4.37642 76.7528 4.54687 76.6193 4.76847C76.4858 4.98722 76.4205 5.24432 76.4233 5.53977C76.4205 5.84091 76.4872 6.10369 76.6236 6.32812C76.7628 6.55256 76.9545 6.72727 77.1989 6.85227C77.4432 6.97727 77.7244 7.03977 78.0426 7.03977Z" fill="#AAB1B7"/>
<path d="M108.903 12V11.233L111.784 8.07955C112.122 7.71023 112.401 7.3892 112.619 7.11648C112.838 6.84091 113 6.58239 113.105 6.34091C113.213 6.09659 113.267 5.84091 113.267 5.57386C113.267 5.26705 113.193 5.00142 113.045 4.77699C112.901 4.55256 112.702 4.37926 112.449 4.2571C112.196 4.13494 111.912 4.07386 111.597 4.07386C111.261 4.07386 110.969 4.14347 110.719 4.28267C110.472 4.41903 110.28 4.6108 110.143 4.85795C110.01 5.10511 109.943 5.39489 109.943 5.72727H108.938C108.938 5.21591 109.055 4.76705 109.291 4.38068C109.527 3.99432 109.848 3.69318 110.254 3.47727C110.663 3.26136 111.122 3.15341 111.631 3.15341C112.142 3.15341 112.595 3.26136 112.99 3.47727C113.385 3.69318 113.695 3.98437 113.919 4.35085C114.143 4.71733 114.256 5.125 114.256 5.57386C114.256 5.89489 114.197 6.20881 114.081 6.51562C113.967 6.8196 113.768 7.15909 113.484 7.53409C113.203 7.90625 112.812 8.3608 112.312 8.89773L110.352 10.9943V11.0625H114.409V12H108.903ZM119.016 12.1193C118.374 12.1193 117.827 11.9446 117.375 11.5952C116.923 11.2429 116.578 10.733 116.339 10.0653C116.101 9.39489 115.982 8.58523 115.982 7.63636C115.982 6.69318 116.101 5.88778 116.339 5.22017C116.581 4.54972 116.928 4.03835 117.379 3.68608C117.834 3.33097 118.379 3.15341 119.016 3.15341C119.652 3.15341 120.196 3.33097 120.648 3.68608C121.102 4.03835 121.449 4.54972 121.688 5.22017C121.929 5.88778 122.05 6.69318 122.05 7.63636C122.05 8.58523 121.93 9.39489 121.692 10.0653C121.453 10.733 121.108 11.2429 120.656 11.5952C120.205 11.9446 119.658 12.1193 119.016 12.1193ZM119.016 11.1818C119.652 11.1818 120.146 10.875 120.499 10.2614C120.851 9.64773 121.027 8.77273 121.027 7.63636C121.027 6.88068 120.946 6.23722 120.784 5.70597C120.625 5.17472 120.395 4.76989 120.094 4.49148C119.795 4.21307 119.436 4.07386 119.016 4.07386C118.385 4.07386 117.892 4.38494 117.537 5.0071C117.182 5.62642 117.004 6.50284 117.004 7.63636C117.004 8.39205 117.084 9.03409 117.243 9.5625C117.402 10.0909 117.631 10.4929 117.929 10.7685C118.23 11.044 118.592 11.1818 119.016 11.1818ZM126.737 3.27273V12H125.68V4.38068H125.629L123.499 5.79545V4.72159L125.68 3.27273H126.737ZM132.026 3.15341C132.384 3.15625 132.741 3.22443 133.099 3.35795C133.457 3.49148 133.784 3.71307 134.08 4.02273C134.375 4.32955 134.612 4.74858 134.791 5.27983C134.97 5.81108 135.06 6.47727 135.06 7.27841C135.06 8.05398 134.986 8.7429 134.838 9.34517C134.693 9.9446 134.483 10.4503 134.207 10.8622C133.935 11.2741 133.602 11.5866 133.21 11.7997C132.821 12.0128 132.381 12.1193 131.889 12.1193C131.401 12.1193 130.964 12.0227 130.581 11.8295C130.2 11.6335 129.888 11.3622 129.643 11.0156C129.402 10.6662 129.247 10.2614 129.179 9.80114H130.219C130.312 10.2017 130.499 10.5327 130.777 10.794C131.058 11.0526 131.429 11.1818 131.889 11.1818C132.563 11.1818 133.094 10.8878 133.483 10.2997C133.875 9.71165 134.071 8.88068 134.071 7.80682H134.003C133.844 8.04545 133.655 8.25142 133.436 8.42472C133.217 8.59801 132.974 8.73153 132.707 8.82528C132.44 8.91903 132.156 8.96591 131.855 8.96591C131.355 8.96591 130.896 8.84233 130.479 8.59517C130.064 8.34517 129.732 8.00284 129.482 7.56818C129.234 7.13068 129.111 6.63068 129.111 6.06818C129.111 5.53409 129.23 5.04545 129.469 4.60227C129.71 4.15625 130.048 3.80114 130.483 3.53693C130.92 3.27273 131.435 3.14489 132.026 3.15341ZM132.026 4.09091C131.668 4.09091 131.345 4.1804 131.058 4.35938C130.774 4.53551 130.548 4.77415 130.381 5.07528C130.216 5.37358 130.134 5.70455 130.134 6.06818C130.134 6.43182 130.213 6.76278 130.372 7.06108C130.534 7.35653 130.754 7.59233 131.033 7.76847C131.314 7.94176 131.634 8.02841 131.991 8.02841C132.261 8.02841 132.513 7.97585 132.746 7.87074C132.979 7.76278 133.182 7.61648 133.355 7.43182C133.531 7.24432 133.669 7.03267 133.768 6.79688C133.868 6.55824 133.918 6.30966 133.918 6.05114C133.918 5.71023 133.835 5.39062 133.67 5.09233C133.509 4.79403 133.284 4.55256 132.997 4.3679C132.713 4.18324 132.389 4.09091 132.026 4.09091Z" fill="#AAB1B7"/>
<path d="M162.903 12V11.233L165.784 8.07955C166.122 7.71023 166.401 7.3892 166.619 7.11648C166.838 6.84091 167 6.58239 167.105 6.34091C167.213 6.09659 167.267 5.84091 167.267 5.57386C167.267 5.26705 167.193 5.00142 167.045 4.77699C166.901 4.55256 166.702 4.37926 166.449 4.2571C166.196 4.13494 165.912 4.07386 165.597 4.07386C165.261 4.07386 164.969 4.14347 164.719 4.28267C164.472 4.41903 164.28 4.6108 164.143 4.85795C164.01 5.10511 163.943 5.39489 163.943 5.72727H162.938C162.938 5.21591 163.055 4.76705 163.291 4.38068C163.527 3.99432 163.848 3.69318 164.254 3.47727C164.663 3.26136 165.122 3.15341 165.631 3.15341C166.142 3.15341 166.595 3.26136 166.99 3.47727C167.385 3.69318 167.695 3.98437 167.919 4.35085C168.143 4.71733 168.256 5.125 168.256 5.57386C168.256 5.89489 168.197 6.20881 168.081 6.51562C167.967 6.8196 167.768 7.15909 167.484 7.53409C167.203 7.90625 166.812 8.3608 166.312 8.89773L164.352 10.9943V11.0625H168.409V12H162.903ZM173.016 12.1193C172.374 12.1193 171.827 11.9446 171.375 11.5952C170.923 11.2429 170.578 10.733 170.339 10.0653C170.101 9.39489 169.982 8.58523 169.982 7.63636C169.982 6.69318 170.101 5.88778 170.339 5.22017C170.581 4.54972 170.928 4.03835 171.379 3.68608C171.834 3.33097 172.379 3.15341 173.016 3.15341C173.652 3.15341 174.196 3.33097 174.648 3.68608C175.102 4.03835 175.449 4.54972 175.688 5.22017C175.929 5.88778 176.05 6.69318 176.05 7.63636C176.05 8.58523 175.93 9.39489 175.692 10.0653C175.453 10.733 175.108 11.2429 174.656 11.5952C174.205 11.9446 173.658 12.1193 173.016 12.1193ZM173.016 11.1818C173.652 11.1818 174.146 10.875 174.499 10.2614C174.851 9.64773 175.027 8.77273 175.027 7.63636C175.027 6.88068 174.946 6.23722 174.784 5.70597C174.625 5.17472 174.395 4.76989 174.094 4.49148C173.795 4.21307 173.436 4.07386 173.016 4.07386C172.385 4.07386 171.892 4.38494 171.537 5.0071C171.182 5.62642 171.004 6.50284 171.004 7.63636C171.004 8.39205 171.084 9.03409 171.243 9.5625C171.402 10.0909 171.631 10.4929 171.929 10.7685C172.23 11.044 172.592 11.1818 173.016 11.1818ZM177.669 12V11.233L180.55 8.07955C180.888 7.71023 181.166 7.3892 181.385 7.11648C181.604 6.84091 181.766 6.58239 181.871 6.34091C181.979 6.09659 182.033 5.84091 182.033 5.57386C182.033 5.26705 181.959 5.00142 181.811 4.77699C181.666 4.55256 181.467 4.37926 181.214 4.2571C180.962 4.13494 180.678 4.07386 180.362 4.07386C180.027 4.07386 179.734 4.14347 179.484 4.28267C179.237 4.41903 179.045 4.6108 178.909 4.85795C178.776 5.10511 178.709 5.39489 178.709 5.72727H177.703C177.703 5.21591 177.821 4.76705 178.057 4.38068C178.293 3.99432 178.614 3.69318 179.02 3.47727C179.429 3.26136 179.888 3.15341 180.396 3.15341C180.908 3.15341 181.361 3.26136 181.756 3.47727C182.151 3.69318 182.46 3.98437 182.685 4.35085C182.909 4.71733 183.021 5.125 183.021 5.57386C183.021 5.89489 182.963 6.20881 182.847 6.51562C182.733 6.8196 182.534 7.15909 182.25 7.53409C181.969 7.90625 181.578 8.3608 181.078 8.89773L179.118 10.9943V11.0625H183.175V12H177.669ZM187.781 12.1193C187.139 12.1193 186.592 11.9446 186.141 11.5952C185.689 11.2429 185.344 10.733 185.105 10.0653C184.866 9.39489 184.747 8.58523 184.747 7.63636C184.747 6.69318 184.866 5.88778 185.105 5.22017C185.347 4.54972 185.693 4.03835 186.145 3.68608C186.599 3.33097 187.145 3.15341 187.781 3.15341C188.418 3.15341 188.962 3.33097 189.413 3.68608C189.868 4.03835 190.214 4.54972 190.453 5.22017C190.695 5.88778 190.815 6.69318 190.815 7.63636C190.815 8.58523 190.696 9.39489 190.457 10.0653C190.219 10.733 189.874 11.2429 189.422 11.5952C188.97 11.9446 188.423 12.1193 187.781 12.1193ZM187.781 11.1818C188.418 11.1818 188.912 10.875 189.264 10.2614C189.616 9.64773 189.793 8.77273 189.793 7.63636C189.793 6.88068 189.712 6.23722 189.55 5.70597C189.391 5.17472 189.161 4.76989 188.859 4.49148C188.561 4.21307 188.202 4.07386 187.781 4.07386C187.151 4.07386 186.658 4.38494 186.303 5.0071C185.947 5.62642 185.77 6.50284 185.77 7.63636C185.77 8.39205 185.849 9.03409 186.009 9.5625C186.168 10.0909 186.396 10.4929 186.695 10.7685C186.996 11.044 187.358 11.1818 187.781 11.1818Z" fill="#925FE2"/>
<path d="M218.903 12V11.233L221.784 8.07955C222.122 7.71023 222.401 7.3892 222.619 7.11648C222.838 6.84091 223 6.58239 223.105 6.34091C223.213 6.09659 223.267 5.84091 223.267 5.57386C223.267 5.26705 223.193 5.00142 223.045 4.77699C222.901 4.55256 222.702 4.37926 222.449 4.2571C222.196 4.13494 221.912 4.07386 221.597 4.07386C221.261 4.07386 220.969 4.14347 220.719 4.28267C220.472 4.41903 220.28 4.6108 220.143 4.85795C220.01 5.10511 219.943 5.39489 219.943 5.72727H218.938C218.938 5.21591 219.055 4.76705 219.291 4.38068C219.527 3.99432 219.848 3.69318 220.254 3.47727C220.663 3.26136 221.122 3.15341 221.631 3.15341C222.142 3.15341 222.595 3.26136 222.99 3.47727C223.385 3.69318 223.695 3.98437 223.919 4.35085C224.143 4.71733 224.256 5.125 224.256 5.57386C224.256 5.89489 224.197 6.20881 224.081 6.51562C223.967 6.8196 223.768 7.15909 223.484 7.53409C223.203 7.90625 222.812 8.3608 222.312 8.89773L220.352 10.9943V11.0625H224.409V12H218.903ZM229.016 12.1193C228.374 12.1193 227.827 11.9446 227.375 11.5952C226.923 11.2429 226.578 10.733 226.339 10.0653C226.101 9.39489 225.982 8.58523 225.982 7.63636C225.982 6.69318 226.101 5.88778 226.339 5.22017C226.581 4.54972 226.928 4.03835 227.379 3.68608C227.834 3.33097 228.379 3.15341 229.016 3.15341C229.652 3.15341 230.196 3.33097 230.648 3.68608C231.102 4.03835 231.449 4.54972 231.688 5.22017C231.929 5.88778 232.05 6.69318 232.05 7.63636C232.05 8.58523 231.93 9.39489 231.692 10.0653C231.453 10.733 231.108 11.2429 230.656 11.5952C230.205 11.9446 229.658 12.1193 229.016 12.1193ZM229.016 11.1818C229.652 11.1818 230.146 10.875 230.499 10.2614C230.851 9.64773 231.027 8.77273 231.027 7.63636C231.027 6.88068 230.946 6.23722 230.784 5.70597C230.625 5.17472 230.395 4.76989 230.094 4.49148C229.795 4.21307 229.436 4.07386 229.016 4.07386C228.385 4.07386 227.892 4.38494 227.537 5.0071C227.182 5.62642 227.004 6.50284 227.004 7.63636C227.004 8.39205 227.084 9.03409 227.243 9.5625C227.402 10.0909 227.631 10.4929 227.929 10.7685C228.23 11.044 228.592 11.1818 229.016 11.1818ZM233.669 12V11.233L236.55 8.07955C236.888 7.71023 237.166 7.3892 237.385 7.11648C237.604 6.84091 237.766 6.58239 237.871 6.34091C237.979 6.09659 238.033 5.84091 238.033 5.57386C238.033 5.26705 237.959 5.00142 237.811 4.77699C237.666 4.55256 237.467 4.37926 237.214 4.2571C236.962 4.13494 236.678 4.07386 236.362 4.07386C236.027 4.07386 235.734 4.14347 235.484 4.28267C235.237 4.41903 235.045 4.6108 234.909 4.85795C234.776 5.10511 234.709 5.39489 234.709 5.72727H233.703C233.703 5.21591 233.821 4.76705 234.057 4.38068C234.293 3.99432 234.614 3.69318 235.02 3.47727C235.429 3.26136 235.888 3.15341 236.396 3.15341C236.908 3.15341 237.361 3.26136 237.756 3.47727C238.151 3.69318 238.46 3.98437 238.685 4.35085C238.909 4.71733 239.021 5.125 239.021 5.57386C239.021 5.89489 238.963 6.20881 238.847 6.51562C238.733 6.8196 238.534 7.15909 238.25 7.53409C237.969 7.90625 237.578 8.3608 237.078 8.89773L235.118 10.9943V11.0625H239.175V12H233.669ZM244.003 3.27273V12H242.946V4.38068H242.895L240.764 5.79545V4.72159L242.946 3.27273H244.003Z" fill="#AAB1B7"/>
<path d="M272.903 12V11.233L275.784 8.07955C276.122 7.71023 276.401 7.3892 276.619 7.11648C276.838 6.84091 277 6.58239 277.105 6.34091C277.213 6.09659 277.267 5.84091 277.267 5.57386C277.267 5.26705 277.193 5.00142 277.045 4.77699C276.901 4.55256 276.702 4.37926 276.449 4.2571C276.196 4.13494 275.912 4.07386 275.597 4.07386C275.261 4.07386 274.969 4.14347 274.719 4.28267C274.472 4.41903 274.28 4.6108 274.143 4.85795C274.01 5.10511 273.943 5.39489 273.943 5.72727H272.938C272.938 5.21591 273.055 4.76705 273.291 4.38068C273.527 3.99432 273.848 3.69318 274.254 3.47727C274.663 3.26136 275.122 3.15341 275.631 3.15341C276.142 3.15341 276.595 3.26136 276.99 3.47727C277.385 3.69318 277.695 3.98437 277.919 4.35085C278.143 4.71733 278.256 5.125 278.256 5.57386C278.256 5.89489 278.197 6.20881 278.081 6.51562C277.967 6.8196 277.768 7.15909 277.484 7.53409C277.203 7.90625 276.812 8.3608 276.312 8.89773L274.352 10.9943V11.0625H278.409V12H272.903ZM283.016 12.1193C282.374 12.1193 281.827 11.9446 281.375 11.5952C280.923 11.2429 280.578 10.733 280.339 10.0653C280.101 9.39489 279.982 8.58523 279.982 7.63636C279.982 6.69318 280.101 5.88778 280.339 5.22017C280.581 4.54972 280.928 4.03835 281.379 3.68608C281.834 3.33097 282.379 3.15341 283.016 3.15341C283.652 3.15341 284.196 3.33097 284.648 3.68608C285.102 4.03835 285.449 4.54972 285.688 5.22017C285.929 5.88778 286.05 6.69318 286.05 7.63636C286.05 8.58523 285.93 9.39489 285.692 10.0653C285.453 10.733 285.108 11.2429 284.656 11.5952C284.205 11.9446 283.658 12.1193 283.016 12.1193ZM283.016 11.1818C283.652 11.1818 284.146 10.875 284.499 10.2614C284.851 9.64773 285.027 8.77273 285.027 7.63636C285.027 6.88068 284.946 6.23722 284.784 5.70597C284.625 5.17472 284.395 4.76989 284.094 4.49148C283.795 4.21307 283.436 4.07386 283.016 4.07386C282.385 4.07386 281.892 4.38494 281.537 5.0071C281.182 5.62642 281.004 6.50284 281.004 7.63636C281.004 8.39205 281.084 9.03409 281.243 9.5625C281.402 10.0909 281.631 10.4929 281.929 10.7685C282.23 11.044 282.592 11.1818 283.016 11.1818ZM287.669 12V11.233L290.55 8.07955C290.888 7.71023 291.166 7.3892 291.385 7.11648C291.604 6.84091 291.766 6.58239 291.871 6.34091C291.979 6.09659 292.033 5.84091 292.033 5.57386C292.033 5.26705 291.959 5.00142 291.811 4.77699C291.666 4.55256 291.467 4.37926 291.214 4.2571C290.962 4.13494 290.678 4.07386 290.362 4.07386C290.027 4.07386 289.734 4.14347 289.484 4.28267C289.237 4.41903 289.045 4.6108 288.909 4.85795C288.776 5.10511 288.709 5.39489 288.709 5.72727H287.703C287.703 5.21591 287.821 4.76705 288.057 4.38068C288.293 3.99432 288.614 3.69318 289.02 3.47727C289.429 3.26136 289.888 3.15341 290.396 3.15341C290.908 3.15341 291.361 3.26136 291.756 3.47727C292.151 3.69318 292.46 3.98437 292.685 4.35085C292.909 4.71733 293.021 5.125 293.021 5.57386C293.021 5.89489 292.963 6.20881 292.847 6.51562C292.733 6.8196 292.534 7.15909 292.25 7.53409C291.969 7.90625 291.578 8.3608 291.078 8.89773L289.118 10.9943V11.0625H293.175V12H287.669ZM294.935 12V11.233L297.815 8.07955C298.153 7.71023 298.432 7.3892 298.651 7.11648C298.869 6.84091 299.031 6.58239 299.136 6.34091C299.244 6.09659 299.298 5.84091 299.298 5.57386C299.298 5.26705 299.224 5.00142 299.077 4.77699C298.932 4.55256 298.733 4.37926 298.48 4.2571C298.227 4.13494 297.943 4.07386 297.628 4.07386C297.293 4.07386 297 4.14347 296.75 4.28267C296.503 4.41903 296.311 4.6108 296.175 4.85795C296.041 5.10511 295.974 5.39489 295.974 5.72727H294.969C294.969 5.21591 295.087 4.76705 295.322 4.38068C295.558 3.99432 295.879 3.69318 296.286 3.47727C296.695 3.26136 297.153 3.15341 297.662 3.15341C298.173 3.15341 298.626 3.26136 299.021 3.47727C299.416 3.69318 299.726 3.98437 299.95 4.35085C300.175 4.71733 300.287 5.125 300.287 5.57386C300.287 5.89489 300.229 6.20881 300.112 6.51562C299.999 6.8196 299.8 7.15909 299.516 7.53409C299.234 7.90625 298.844 8.3608 298.344 8.89773L296.384 10.9943V11.0625H300.44V12H294.935Z" fill="#AAB1B7"/>
</svg>
