<svg width="397" height="277" viewBox="0 0 397 277" fill="none" xmlns="http://www.w3.org/2000/svg">
<rect width="397" height="277" rx="14" fill="white"/>
<path d="M25.08 42.14C24.1467 42.14 23.3067 41.98 22.56 41.66C21.8133 41.3267 21.2267 40.86 20.8 40.26C20.3733 39.66 20.16 38.96 20.16 38.16H22.6C22.6533 38.76 22.8867 39.2533 23.3 39.64C23.7267 40.0267 24.32 40.22 25.08 40.22C25.8667 40.22 26.48 40.0333 26.92 39.66C27.36 39.2733 27.58 38.78 27.58 38.18C27.58 37.7133 27.44 37.3333 27.16 37.04C26.8933 36.7467 26.5533 36.52 26.14 36.36C25.74 36.2 25.18 36.0267 24.46 35.84C23.5533 35.6 22.8133 35.36 22.24 35.12C21.68 34.8667 21.2 34.48 20.8 33.96C20.4 33.44 20.2 32.7467 20.2 31.88C20.2 31.08 20.4 30.38 20.8 29.78C21.2 29.18 21.76 28.72 22.48 28.4C23.2 28.08 24.0333 27.92 24.98 27.92C26.3267 27.92 27.4267 28.26 28.28 28.94C29.1467 29.6067 29.6267 30.5267 29.72 31.7H27.2C27.16 31.1933 26.92 30.76 26.48 30.4C26.04 30.04 25.46 29.86 24.74 29.86C24.0867 29.86 23.5533 30.0267 23.14 30.36C22.7267 30.6933 22.52 31.1733 22.52 31.8C22.52 32.2267 22.6467 32.58 22.9 32.86C23.1667 33.1267 23.5 33.34 23.9 33.5C24.3 33.66 24.8467 33.8333 25.54 34.02C26.46 34.2733 27.2067 34.5267 27.78 34.78C28.3667 35.0333 28.86 35.4267 29.26 35.96C29.6733 36.48 29.88 37.18 29.88 38.06C29.88 38.7667 29.6867 39.4333 29.3 40.06C28.9267 40.6867 28.3733 41.1933 27.64 41.58C26.92 41.9533 26.0667 42.14 25.08 42.14ZM35.2303 32.84V38.94C35.2303 39.3533 35.3236 39.6533 35.5103 39.84C35.7103 40.0133 36.0436 40.1 36.5103 40.1H37.9103V42H36.1103C35.0836 42 34.297 41.76 33.7503 41.28C33.2036 40.8 32.9303 40.02 32.9303 38.94V32.84H31.6303V30.98H32.9303V28.24H35.2303V30.98H37.9103V32.84H35.2303ZM39.2517 36.44C39.2517 35.3333 39.4784 34.3533 39.9317 33.5C40.3984 32.6467 41.0251 31.9867 41.8117 31.52C42.6117 31.04 43.4917 30.8 44.4517 30.8C45.3184 30.8 46.0717 30.9733 46.7117 31.32C47.3651 31.6533 47.8851 32.0733 48.2717 32.58V30.98H50.5717V42H48.2717V40.36C47.8851 40.88 47.3584 41.3133 46.6917 41.66C46.0251 42.0067 45.2651 42.18 44.4117 42.18C43.4651 42.18 42.5984 41.94 41.8117 41.46C41.0251 40.9667 40.3984 40.2867 39.9317 39.42C39.4784 38.54 39.2517 37.5467 39.2517 36.44ZM48.2717 36.48C48.2717 35.72 48.1117 35.06 47.7917 34.5C47.4851 33.94 47.0784 33.5133 46.5717 33.22C46.0651 32.9267 45.5184 32.78 44.9317 32.78C44.3451 32.78 43.7984 32.9267 43.2917 33.22C42.7851 33.5 42.3717 33.92 42.0517 34.48C41.7451 35.0267 41.5917 35.68 41.5917 36.44C41.5917 37.2 41.7451 37.8667 42.0517 38.44C42.3717 39.0133 42.7851 39.4533 43.2917 39.76C43.8117 40.0533 44.3584 40.2 44.9317 40.2C45.5184 40.2 46.0651 40.0533 46.5717 39.76C47.0784 39.4667 47.4851 39.04 47.7917 38.48C48.1117 37.9067 48.2717 37.24 48.2717 36.48ZM56.2264 32.84V38.94C56.2264 39.3533 56.3197 39.6533 56.5064 39.84C56.7064 40.0133 57.0397 40.1 57.5064 40.1H58.9064V42H57.1064C56.0797 42 55.2931 41.76 54.7464 41.28C54.1997 40.8 53.9264 40.02 53.9264 38.94V32.84H52.6264V30.98H53.9264V28.24H56.2264V30.98H58.9064V32.84H56.2264ZM62.1678 29.52C61.7545 29.52 61.4078 29.38 61.1278 29.1C60.8478 28.82 60.7078 28.4733 60.7078 28.06C60.7078 27.6467 60.8478 27.3 61.1278 27.02C61.4078 26.74 61.7545 26.6 62.1678 26.6C62.5678 26.6 62.9078 26.74 63.1878 27.02C63.4678 27.3 63.6078 27.6467 63.6078 28.06C63.6078 28.4733 63.4678 28.82 63.1878 29.1C62.9078 29.38 62.5678 29.52 62.1678 29.52ZM63.2878 30.98V42H61.0078V30.98H63.2878ZM70.2813 42.18C69.4146 42.18 68.6346 42.0267 67.9413 41.72C67.2613 41.4 66.7213 40.9733 66.3213 40.44C65.9213 39.8933 65.7079 39.2867 65.6813 38.62H68.0413C68.0813 39.0867 68.3013 39.48 68.7013 39.8C69.1146 40.1067 69.6279 40.26 70.2413 40.26C70.8813 40.26 71.3746 40.14 71.7213 39.9C72.0813 39.6467 72.2613 39.3267 72.2613 38.94C72.2613 38.5267 72.0613 38.22 71.6613 38.02C71.2746 37.82 70.6546 37.6 69.8013 37.36C68.9746 37.1333 68.3013 36.9133 67.7813 36.7C67.2613 36.4867 66.8079 36.16 66.4213 35.72C66.0479 35.28 65.8613 34.7 65.8613 33.98C65.8613 33.3933 66.0346 32.86 66.3813 32.38C66.7279 31.8867 67.2213 31.5 67.8613 31.22C68.5146 30.94 69.2613 30.8 70.1013 30.8C71.3546 30.8 72.3613 31.12 73.1213 31.76C73.8946 32.3867 74.3079 33.2467 74.3613 34.34H72.0813C72.0413 33.8467 71.8413 33.4533 71.4813 33.16C71.1213 32.8667 70.6346 32.72 70.0213 32.72C69.4213 32.72 68.9613 32.8333 68.6413 33.06C68.3213 33.2867 68.1613 33.5867 68.1613 33.96C68.1613 34.2533 68.2679 34.5 68.4813 34.7C68.6946 34.9 68.9546 35.06 69.2613 35.18C69.5679 35.2867 70.0213 35.4267 70.6213 35.6C71.4213 35.8133 72.0746 36.0333 72.5813 36.26C73.1013 36.4733 73.5479 36.7933 73.9213 37.22C74.2946 37.6467 74.4879 38.2133 74.5013 38.92C74.5013 39.5467 74.3279 40.1067 73.9813 40.6C73.6346 41.0933 73.1413 41.48 72.5013 41.76C71.8746 42.04 71.1346 42.18 70.2813 42.18ZM79.6248 32.84V38.94C79.6248 39.3533 79.7182 39.6533 79.9048 39.84C80.1048 40.0133 80.4382 40.1 80.9048 40.1H82.3048V42H80.5048C79.4782 42 78.6915 41.76 78.1448 41.28C77.5982 40.8 77.3248 40.02 77.3248 38.94V32.84H76.0248V30.98H77.3248V28.24H79.6248V30.98H82.3048V32.84H79.6248ZM85.5663 29.52C85.1529 29.52 84.8063 29.38 84.5263 29.1C84.2463 28.82 84.1063 28.4733 84.1063 28.06C84.1063 27.6467 84.2463 27.3 84.5263 27.02C84.8063 26.74 85.1529 26.6 85.5663 26.6C85.9663 26.6 86.3063 26.74 86.5863 27.02C86.8663 27.3 87.0063 27.6467 87.0063 28.06C87.0063 28.4733 86.8663 28.82 86.5863 29.1C86.3063 29.38 85.9663 29.52 85.5663 29.52ZM86.6863 30.98V42H84.4063V30.98H86.6863ZM88.9197 36.48C88.9197 35.3467 89.1464 34.3533 89.5997 33.5C90.0664 32.6333 90.7064 31.9667 91.5197 31.5C92.333 31.0333 93.2664 30.8 94.3197 30.8C95.653 30.8 96.753 31.12 97.6197 31.76C98.4997 32.3867 99.093 33.2867 99.3997 34.46H96.9397C96.7397 33.9133 96.4197 33.4867 95.9797 33.18C95.5397 32.8733 94.9864 32.72 94.3197 32.72C93.3864 32.72 92.6397 33.0533 92.0797 33.72C91.533 34.3733 91.2597 35.2933 91.2597 36.48C91.2597 37.6667 91.533 38.5933 92.0797 39.26C92.6397 39.9267 93.3864 40.26 94.3197 40.26C95.6397 40.26 96.513 39.68 96.9397 38.52H99.3997C99.0797 39.64 98.4797 40.5333 97.5997 41.2C96.7197 41.8533 95.6264 42.18 94.3197 42.18C93.2664 42.18 92.333 41.9467 91.5197 41.48C90.7064 41 90.0664 40.3333 89.5997 39.48C89.1464 38.6133 88.9197 37.6133 88.9197 36.48ZM105.672 42.18C104.805 42.18 104.025 42.0267 103.332 41.72C102.652 41.4 102.112 40.9733 101.712 40.44C101.312 39.8933 101.099 39.2867 101.072 38.62H103.432C103.472 39.0867 103.692 39.48 104.092 39.8C104.505 40.1067 105.019 40.26 105.632 40.26C106.272 40.26 106.765 40.14 107.112 39.9C107.472 39.6467 107.652 39.3267 107.652 38.94C107.652 38.5267 107.452 38.22 107.052 38.02C106.665 37.82 106.045 37.6 105.192 37.36C104.365 37.1333 103.692 36.9133 103.172 36.7C102.652 36.4867 102.199 36.16 101.812 35.72C101.439 35.28 101.252 34.7 101.252 33.98C101.252 33.3933 101.425 32.86 101.772 32.38C102.119 31.8867 102.612 31.5 103.252 31.22C103.905 30.94 104.652 30.8 105.492 30.8C106.745 30.8 107.752 31.12 108.512 31.76C109.285 32.3867 109.699 33.2467 109.752 34.34H107.472C107.432 33.8467 107.232 33.4533 106.872 33.16C106.512 32.8667 106.025 32.72 105.412 32.72C104.812 32.72 104.352 32.8333 104.032 33.06C103.712 33.2867 103.552 33.5867 103.552 33.96C103.552 34.2533 103.659 34.5 103.872 34.7C104.085 34.9 104.345 35.06 104.652 35.18C104.959 35.2867 105.412 35.4267 106.012 35.6C106.812 35.8133 107.465 36.0333 107.972 36.26C108.492 36.4733 108.939 36.7933 109.312 37.22C109.685 37.6467 109.879 38.2133 109.892 38.92C109.892 39.5467 109.719 40.1067 109.372 40.6C109.025 41.0933 108.532 41.48 107.892 41.76C107.265 42.04 106.525 42.18 105.672 42.18Z" fill="#070707"/>
<path d="M22.6989 100.119C22.1136 100.119 21.5966 100.016 21.1477 99.8082C20.7017 99.598 20.3537 99.3097 20.1037 98.9432C19.8537 98.5739 19.7301 98.1534 19.733 97.6818C19.7301 97.3125 19.8026 96.9716 19.9503 96.6591C20.098 96.3437 20.2997 96.081 20.5554 95.8707C20.8139 95.6577 21.1023 95.5227 21.4205 95.4659V95.4148C21.0028 95.3068 20.6705 95.0724 20.4233 94.7116C20.1761 94.348 20.054 93.9347 20.0568 93.4716C20.054 93.0284 20.1662 92.6321 20.3935 92.2827C20.6207 91.9332 20.9332 91.6577 21.331 91.456C21.7315 91.2543 22.1875 91.1534 22.6989 91.1534C23.2045 91.1534 23.6563 91.2543 24.054 91.456C24.4517 91.6577 24.7642 91.9332 24.9915 92.2827C25.2216 92.6321 25.3381 93.0284 25.3409 93.4716C25.3381 93.9347 25.2116 94.348 24.9616 94.7116C24.7145 95.0724 24.3864 95.3068 23.9773 95.4148V95.4659C24.2926 95.5227 24.5767 95.6577 24.8295 95.8707C25.0824 96.081 25.2841 96.3437 25.4347 96.6591C25.5852 96.9716 25.6619 97.3125 25.6648 97.6818C25.6619 98.1534 25.5341 98.5739 25.2812 98.9432C25.0312 99.3097 24.6832 99.598 24.2372 99.8082C23.794 100.016 23.2813 100.119 22.6989 100.119ZM22.6989 99.1818C23.0938 99.1818 23.4347 99.1179 23.7216 98.9901C24.0085 98.8622 24.2301 98.6818 24.3864 98.4489C24.5426 98.2159 24.6222 97.9432 24.625 97.6307C24.6222 97.3011 24.5369 97.0099 24.3693 96.7571C24.2017 96.5043 23.973 96.3054 23.6832 96.1605C23.3963 96.0156 23.0682 95.9432 22.6989 95.9432C22.3267 95.9432 21.9943 96.0156 21.7017 96.1605C21.4119 96.3054 21.1832 96.5043 21.0156 96.7571C20.8509 97.0099 20.7699 97.3011 20.7727 97.6307C20.7699 97.9432 20.8452 98.2159 20.9986 98.4489C21.1548 98.6818 21.3778 98.8622 21.6676 98.9901C21.9574 99.1179 22.3011 99.1818 22.6989 99.1818ZM22.6989 95.0398C23.0114 95.0398 23.2884 94.9773 23.5298 94.8523C23.7741 94.7273 23.9659 94.5526 24.1051 94.3281C24.2443 94.1037 24.3153 93.8409 24.3182 93.5398C24.3153 93.2443 24.2457 92.9872 24.1094 92.7685C23.973 92.5469 23.7841 92.3764 23.5426 92.2571C23.3011 92.1349 23.0199 92.0739 22.6989 92.0739C22.3722 92.0739 22.0866 92.1349 21.8423 92.2571C21.598 92.3764 21.4091 92.5469 21.2756 92.7685C21.142 92.9872 21.0767 93.2443 21.0795 93.5398C21.0767 93.8409 21.1435 94.1037 21.2798 94.3281C21.419 94.5526 21.6108 94.7273 21.8551 94.8523C22.0994 94.9773 22.3807 95.0398 22.6989 95.0398ZM30.1445 100.119C29.5025 100.119 28.9556 99.9446 28.5039 99.5952C28.0522 99.2429 27.707 98.733 27.4684 98.0653C27.2298 97.3949 27.1104 96.5852 27.1104 95.6364C27.1104 94.6932 27.2298 93.8878 27.4684 93.2202C27.7099 92.5497 28.0565 92.0384 28.5082 91.6861C28.9627 91.331 29.5082 91.1534 30.1445 91.1534C30.7809 91.1534 31.3249 91.331 31.7766 91.6861C32.2312 92.0384 32.5778 92.5497 32.8164 93.2202C33.0579 93.8878 33.1786 94.6932 33.1786 95.6364C33.1786 96.5852 33.0593 97.3949 32.8207 98.0653C32.582 98.733 32.2369 99.2429 31.7852 99.5952C31.3335 99.9446 30.7866 100.119 30.1445 100.119ZM30.1445 99.1818C30.7809 99.1818 31.2752 98.875 31.6275 98.2614C31.9798 97.6477 32.1559 96.7727 32.1559 95.6364C32.1559 94.8807 32.0749 94.2372 31.913 93.706C31.7539 93.1747 31.5238 92.7699 31.2227 92.4915C30.9244 92.2131 30.565 92.0739 30.1445 92.0739C29.5138 92.0739 29.021 92.3849 28.6658 93.0071C28.3107 93.6264 28.1332 94.5028 28.1332 95.6364C28.1332 96.392 28.2127 97.0341 28.3718 97.5625C28.5309 98.0909 28.7596 98.4929 29.0579 98.7685C29.359 99.044 29.7212 99.1818 30.1445 99.1818ZM37.6445 100.119C37.0025 100.119 36.4556 99.9446 36.0039 99.5952C35.5522 99.2429 35.207 98.733 34.9684 98.0653C34.7298 97.3949 34.6104 96.5852 34.6104 95.6364C34.6104 94.6932 34.7298 93.8878 34.9684 93.2202C35.2099 92.5497 35.5565 92.0384 36.0082 91.6861C36.4627 91.331 37.0082 91.1534 37.6445 91.1534C38.2809 91.1534 38.8249 91.331 39.2766 91.6861C39.7312 92.0384 40.0778 92.5497 40.3164 93.2202C40.5579 93.8878 40.6786 94.6932 40.6786 95.6364C40.6786 96.5852 40.5593 97.3949 40.3207 98.0653C40.082 98.733 39.7369 99.2429 39.2852 99.5952C38.8335 99.9446 38.2866 100.119 37.6445 100.119ZM37.6445 99.1818C38.2809 99.1818 38.7752 98.875 39.1275 98.2614C39.4798 97.6477 39.6559 96.7727 39.6559 95.6364C39.6559 94.8807 39.5749 94.2372 39.413 93.706C39.2539 93.1747 39.0238 92.7699 38.7227 92.4915C38.4244 92.2131 38.065 92.0739 37.6445 92.0739C37.0138 92.0739 36.521 92.3849 36.1658 93.0071C35.8107 93.6264 35.6332 94.5028 35.6332 95.6364C35.6332 96.392 35.7127 97.0341 35.8718 97.5625C36.0309 98.0909 36.2596 98.4929 36.5579 98.7685C36.859 99.044 37.2212 99.1818 37.6445 99.1818Z" fill="#AAB1B7"/>
<path d="M22.8011 132.119C22.4432 132.114 22.0852 132.045 21.7273 131.915C21.3693 131.784 21.0426 131.564 20.7472 131.254C20.4517 130.942 20.2145 130.52 20.0355 129.989C19.8565 129.455 19.767 128.784 19.767 127.977C19.767 127.205 19.8395 126.52 19.9844 125.923C20.1293 125.324 20.3395 124.82 20.6151 124.411C20.8906 123.999 21.223 123.686 21.6122 123.473C22.0043 123.26 22.446 123.153 22.9375 123.153C23.4261 123.153 23.8608 123.251 24.2415 123.447C24.625 123.641 24.9375 123.911 25.179 124.257C25.4205 124.604 25.5767 125.003 25.6477 125.455H24.608C24.5114 125.062 24.3239 124.737 24.0455 124.479C23.767 124.22 23.3977 124.091 22.9375 124.091C22.2614 124.091 21.7287 124.385 21.3395 124.973C20.9531 125.561 20.7585 126.386 20.7557 127.449H20.8239C20.983 127.207 21.1719 127.001 21.3906 126.831C21.6122 126.658 21.8565 126.524 22.1236 126.43C22.3906 126.337 22.6733 126.29 22.9716 126.29C23.4716 126.29 23.929 126.415 24.3438 126.665C24.7585 126.912 25.0909 127.254 25.3409 127.692C25.5909 128.126 25.7159 128.625 25.7159 129.188C25.7159 129.727 25.5952 130.222 25.3537 130.67C25.1122 131.116 24.7727 131.472 24.3352 131.736C23.9006 131.997 23.3892 132.125 22.8011 132.119ZM22.8011 131.182C23.1591 131.182 23.4801 131.092 23.7642 130.913C24.0511 130.734 24.277 130.494 24.4418 130.193C24.6094 129.892 24.6932 129.557 24.6932 129.188C24.6932 128.827 24.6122 128.499 24.4503 128.203C24.2912 127.905 24.071 127.668 23.7898 127.491C23.5114 127.315 23.1932 127.227 22.8352 127.227C22.5653 127.227 22.3139 127.281 22.081 127.389C21.848 127.494 21.6435 127.639 21.4673 127.824C21.294 128.009 21.1577 128.22 21.0582 128.459C20.9588 128.695 20.9091 128.943 20.9091 129.205C20.9091 129.551 20.9901 129.875 21.152 130.176C21.3168 130.477 21.5412 130.72 21.8253 130.905C22.1122 131.089 22.4375 131.182 22.8011 131.182ZM30.2383 132.119C29.5962 132.119 29.0494 131.945 28.5977 131.595C28.146 131.243 27.8008 130.733 27.5621 130.065C27.3235 129.395 27.2042 128.585 27.2042 127.636C27.2042 126.693 27.3235 125.888 27.5621 125.22C27.8036 124.55 28.1502 124.038 28.6019 123.686C29.0565 123.331 29.6019 123.153 30.2383 123.153C30.8746 123.153 31.4187 123.331 31.8704 123.686C32.3249 124.038 32.6715 124.55 32.9102 125.22C33.1516 125.888 33.2724 126.693 33.2724 127.636C33.2724 128.585 33.1531 129.395 32.9144 130.065C32.6758 130.733 32.3306 131.243 31.8789 131.595C31.4272 131.945 30.8803 132.119 30.2383 132.119ZM30.2383 131.182C30.8746 131.182 31.369 130.875 31.7212 130.261C32.0735 129.648 32.2496 128.773 32.2496 127.636C32.2496 126.881 32.1687 126.237 32.0067 125.706C31.8477 125.175 31.6175 124.77 31.3164 124.491C31.0181 124.213 30.6587 124.074 30.2383 124.074C29.6076 124.074 29.1147 124.385 28.7596 125.007C28.4045 125.626 28.2269 126.503 28.2269 127.636C28.2269 128.392 28.3065 129.034 28.4656 129.562C28.6246 130.091 28.8533 130.493 29.1516 130.768C29.4528 131.044 29.815 131.182 30.2383 131.182ZM37.7383 132.119C37.0962 132.119 36.5494 131.945 36.0977 131.595C35.646 131.243 35.3008 130.733 35.0621 130.065C34.8235 129.395 34.7042 128.585 34.7042 127.636C34.7042 126.693 34.8235 125.888 35.0621 125.22C35.3036 124.55 35.6502 124.038 36.1019 123.686C36.5565 123.331 37.1019 123.153 37.7383 123.153C38.3746 123.153 38.9187 123.331 39.3704 123.686C39.8249 124.038 40.1715 124.55 40.4102 125.22C40.6516 125.888 40.7724 126.693 40.7724 127.636C40.7724 128.585 40.6531 129.395 40.4144 130.065C40.1758 130.733 39.8306 131.243 39.3789 131.595C38.9272 131.945 38.3803 132.119 37.7383 132.119ZM37.7383 131.182C38.3746 131.182 38.869 130.875 39.2212 130.261C39.5735 129.648 39.7496 128.773 39.7496 127.636C39.7496 126.881 39.6687 126.237 39.5067 125.706C39.3477 125.175 39.1175 124.77 38.8164 124.491C38.5181 124.213 38.1587 124.074 37.7383 124.074C37.1076 124.074 36.6147 124.385 36.2596 125.007C35.9045 125.626 35.7269 126.503 35.7269 127.636C35.7269 128.392 35.8065 129.034 35.9656 129.562C36.1246 130.091 36.3533 130.493 36.6516 130.768C36.9528 131.044 37.315 131.182 37.7383 131.182Z" fill="#AAB1B7"/>
<path d="M19.6989 162.21V161.341L23.5341 155.273H24.1648V156.619H23.7386L20.8409 161.205V161.273H26.0057V162.21H19.6989ZM23.8068 164V161.946V161.541V155.273H24.8125V164H23.8068ZM30.4492 164.119C29.8072 164.119 29.2603 163.945 28.8086 163.595C28.3569 163.243 28.0117 162.733 27.7731 162.065C27.5344 161.395 27.4151 160.585 27.4151 159.636C27.4151 158.693 27.5344 157.888 27.7731 157.22C28.0146 156.55 28.3612 156.038 28.8129 155.686C29.2674 155.331 29.8129 155.153 30.4492 155.153C31.0856 155.153 31.6296 155.331 32.0813 155.686C32.5359 156.038 32.8825 156.55 33.1211 157.22C33.3626 157.888 33.4833 158.693 33.4833 159.636C33.4833 160.585 33.364 161.395 33.1254 162.065C32.8867 162.733 32.5415 163.243 32.0898 163.595C31.6381 163.945 31.0913 164.119 30.4492 164.119ZM30.4492 163.182C31.0856 163.182 31.5799 162.875 31.9322 162.261C32.2844 161.648 32.4606 160.773 32.4606 159.636C32.4606 158.881 32.3796 158.237 32.2177 157.706C32.0586 157.175 31.8285 156.77 31.5273 156.491C31.229 156.213 30.8697 156.074 30.4492 156.074C29.8185 156.074 29.3256 156.385 28.9705 157.007C28.6154 157.626 28.4379 158.503 28.4379 159.636C28.4379 160.392 28.5174 161.034 28.6765 161.562C28.8356 162.091 29.0643 162.493 29.3626 162.768C29.6637 163.044 30.0259 163.182 30.4492 163.182ZM37.9492 164.119C37.3072 164.119 36.7603 163.945 36.3086 163.595C35.8569 163.243 35.5117 162.733 35.2731 162.065C35.0344 161.395 34.9151 160.585 34.9151 159.636C34.9151 158.693 35.0344 157.888 35.2731 157.22C35.5146 156.55 35.8612 156.038 36.3129 155.686C36.7674 155.331 37.3129 155.153 37.9492 155.153C38.5856 155.153 39.1296 155.331 39.5813 155.686C40.0359 156.038 40.3825 156.55 40.6211 157.22C40.8626 157.888 40.9833 158.693 40.9833 159.636C40.9833 160.585 40.864 161.395 40.6254 162.065C40.3867 162.733 40.0415 163.243 39.5898 163.595C39.1381 163.945 38.5913 164.119 37.9492 164.119ZM37.9492 163.182C38.5856 163.182 39.0799 162.875 39.4322 162.261C39.7844 161.648 39.9606 160.773 39.9606 159.636C39.9606 158.881 39.8796 158.237 39.7177 157.706C39.5586 157.175 39.3285 156.77 39.0273 156.491C38.729 156.213 38.3697 156.074 37.9492 156.074C37.3185 156.074 36.8256 156.385 36.4705 157.007C36.1154 157.626 35.9379 158.503 35.9379 159.636C35.9379 160.392 36.0174 161.034 36.1765 161.562C36.3356 162.091 36.5643 162.493 36.8626 162.768C37.1637 163.044 37.5259 163.182 37.9492 163.182Z" fill="#AAB1B7"/>
<path d="M19.9034 196V195.233L22.7841 192.08C23.1222 191.71 23.4006 191.389 23.6193 191.116C23.8381 190.841 24 190.582 24.1051 190.341C24.2131 190.097 24.267 189.841 24.267 189.574C24.267 189.267 24.1932 189.001 24.0455 188.777C23.9006 188.553 23.7017 188.379 23.4489 188.257C23.196 188.135 22.9119 188.074 22.5966 188.074C22.2614 188.074 21.9688 188.143 21.7188 188.283C21.4716 188.419 21.2798 188.611 21.1435 188.858C21.0099 189.105 20.9432 189.395 20.9432 189.727H19.9375C19.9375 189.216 20.0554 188.767 20.2912 188.381C20.527 187.994 20.848 187.693 21.2543 187.477C21.6634 187.261 22.1222 187.153 22.6307 187.153C23.142 187.153 23.5952 187.261 23.9901 187.477C24.3849 187.693 24.6946 187.984 24.919 188.351C25.1435 188.717 25.2557 189.125 25.2557 189.574C25.2557 189.895 25.1974 190.209 25.081 190.516C24.9673 190.82 24.7685 191.159 24.4844 191.534C24.2031 191.906 23.8125 192.361 23.3125 192.898L21.3523 194.994V195.062H25.4091V196H19.9034ZM30.0156 196.119C29.3736 196.119 28.8267 195.945 28.375 195.595C27.9233 195.243 27.5781 194.733 27.3395 194.065C27.1009 193.395 26.9815 192.585 26.9815 191.636C26.9815 190.693 27.1009 189.888 27.3395 189.22C27.581 188.55 27.9276 188.038 28.3793 187.686C28.8338 187.331 29.3793 187.153 30.0156 187.153C30.652 187.153 31.196 187.331 31.6477 187.686C32.1023 188.038 32.4489 188.55 32.6875 189.22C32.929 189.888 33.0497 190.693 33.0497 191.636C33.0497 192.585 32.9304 193.395 32.6918 194.065C32.4531 194.733 32.108 195.243 31.6562 195.595C31.2045 195.945 30.6577 196.119 30.0156 196.119ZM30.0156 195.182C30.652 195.182 31.1463 194.875 31.4986 194.261C31.8509 193.648 32.027 192.773 32.027 191.636C32.027 190.881 31.946 190.237 31.7841 189.706C31.625 189.175 31.3949 188.77 31.0938 188.491C30.7955 188.213 30.4361 188.074 30.0156 188.074C29.3849 188.074 28.892 188.385 28.5369 189.007C28.1818 189.626 28.0043 190.503 28.0043 191.636C28.0043 192.392 28.0838 193.034 28.2429 193.562C28.402 194.091 28.6307 194.493 28.929 194.768C29.2301 195.044 29.5923 195.182 30.0156 195.182ZM37.5156 196.119C36.8736 196.119 36.3267 195.945 35.875 195.595C35.4233 195.243 35.0781 194.733 34.8395 194.065C34.6009 193.395 34.4815 192.585 34.4815 191.636C34.4815 190.693 34.6009 189.888 34.8395 189.22C35.081 188.55 35.4276 188.038 35.8793 187.686C36.3338 187.331 36.8793 187.153 37.5156 187.153C38.152 187.153 38.696 187.331 39.1477 187.686C39.6023 188.038 39.9489 188.55 40.1875 189.22C40.429 189.888 40.5497 190.693 40.5497 191.636C40.5497 192.585 40.4304 193.395 40.1918 194.065C39.9531 194.733 39.608 195.243 39.1562 195.595C38.7045 195.945 38.1577 196.119 37.5156 196.119ZM37.5156 195.182C38.152 195.182 38.6463 194.875 38.9986 194.261C39.3509 193.648 39.527 192.773 39.527 191.636C39.527 190.881 39.446 190.237 39.2841 189.706C39.125 189.175 38.8949 188.77 38.5938 188.491C38.2955 188.213 37.9361 188.074 37.5156 188.074C36.8849 188.074 36.392 188.385 36.0369 189.007C35.6818 189.626 35.5043 190.503 35.5043 191.636C35.5043 192.392 35.5838 193.034 35.7429 193.562C35.902 194.091 36.1307 194.493 36.429 194.768C36.7301 195.044 37.0923 195.182 37.5156 195.182Z" fill="#AAB1B7"/>
<path d="M37.75 228.119C37.108 228.119 36.5611 227.945 36.1094 227.595C35.6577 227.243 35.3125 226.733 35.0739 226.065C34.8352 225.395 34.7159 224.585 34.7159 223.636C34.7159 222.693 34.8352 221.888 35.0739 221.22C35.3153 220.55 35.6619 220.038 36.1136 219.686C36.5682 219.331 37.1136 219.153 37.75 219.153C38.3864 219.153 38.9304 219.331 39.3821 219.686C39.8366 220.038 40.1832 220.55 40.4219 221.22C40.6634 221.888 40.7841 222.693 40.7841 223.636C40.7841 224.585 40.6648 225.395 40.4261 226.065C40.1875 226.733 39.8423 227.243 39.3906 227.595C38.9389 227.945 38.392 228.119 37.75 228.119ZM37.75 227.182C38.3864 227.182 38.8807 226.875 39.233 226.261C39.5852 225.648 39.7614 224.773 39.7614 223.636C39.7614 222.881 39.6804 222.237 39.5185 221.706C39.3594 221.175 39.1293 220.77 38.8281 220.491C38.5298 220.213 38.1705 220.074 37.75 220.074C37.1193 220.074 36.6264 220.385 36.2713 221.007C35.9162 221.626 35.7386 222.503 35.7386 223.636C35.7386 224.392 35.8182 225.034 35.9773 225.562C36.1364 226.091 36.3651 226.493 36.6634 226.768C36.9645 227.044 37.3267 227.182 37.75 227.182Z" fill="#AAB1B7"/>
<path d="M64.9034 250V249.233L67.7841 246.08C68.1222 245.71 68.4006 245.389 68.6193 245.116C68.8381 244.841 69 244.582 69.1051 244.341C69.2131 244.097 69.267 243.841 69.267 243.574C69.267 243.267 69.1932 243.001 69.0455 242.777C68.9006 242.553 68.7017 242.379 68.4489 242.257C68.196 242.135 67.9119 242.074 67.5966 242.074C67.2614 242.074 66.9688 242.143 66.7188 242.283C66.4716 242.419 66.2798 242.611 66.1435 242.858C66.0099 243.105 65.9432 243.395 65.9432 243.727H64.9375C64.9375 243.216 65.0554 242.767 65.2912 242.381C65.527 241.994 65.848 241.693 66.2543 241.477C66.6634 241.261 67.1222 241.153 67.6307 241.153C68.142 241.153 68.5952 241.261 68.9901 241.477C69.3849 241.693 69.6946 241.984 69.919 242.351C70.1435 242.717 70.2557 243.125 70.2557 243.574C70.2557 243.895 70.1974 244.209 70.081 244.516C69.9673 244.82 69.7685 245.159 69.4844 245.534C69.2031 245.906 68.8125 246.361 68.3125 246.898L66.3523 248.994V249.062H70.4091V250H64.9034ZM75.0156 250.119C74.3736 250.119 73.8267 249.945 73.375 249.595C72.9233 249.243 72.5781 248.733 72.3395 248.065C72.1009 247.395 71.9815 246.585 71.9815 245.636C71.9815 244.693 72.1009 243.888 72.3395 243.22C72.581 242.55 72.9276 242.038 73.3793 241.686C73.8338 241.331 74.3793 241.153 75.0156 241.153C75.652 241.153 76.196 241.331 76.6477 241.686C77.1023 242.038 77.4489 242.55 77.6875 243.22C77.929 243.888 78.0497 244.693 78.0497 245.636C78.0497 246.585 77.9304 247.395 77.6918 248.065C77.4531 248.733 77.108 249.243 76.6562 249.595C76.2045 249.945 75.6577 250.119 75.0156 250.119ZM75.0156 249.182C75.652 249.182 76.1463 248.875 76.4986 248.261C76.8509 247.648 77.027 246.773 77.027 245.636C77.027 244.881 76.946 244.237 76.7841 243.706C76.625 243.175 76.3949 242.77 76.0938 242.491C75.7955 242.213 75.4361 242.074 75.0156 242.074C74.3849 242.074 73.892 242.385 73.5369 243.007C73.1818 243.626 73.0043 244.503 73.0043 245.636C73.0043 246.392 73.0838 247.034 73.2429 247.562C73.402 248.091 73.6307 248.493 73.929 248.768C74.2301 249.044 74.5923 249.182 75.0156 249.182ZM82.7372 241.273V250H81.6804V242.381H81.6293L79.4986 243.795V242.722L81.6804 241.273H82.7372ZM85.5199 250L89.4233 242.278V242.21H84.9233V241.273H90.5142V242.261L86.6278 250H85.5199Z" fill="#AAB1B7"/>
<path d="M118.903 250V249.233L121.784 246.08C122.122 245.71 122.401 245.389 122.619 245.116C122.838 244.841 123 244.582 123.105 244.341C123.213 244.097 123.267 243.841 123.267 243.574C123.267 243.267 123.193 243.001 123.045 242.777C122.901 242.553 122.702 242.379 122.449 242.257C122.196 242.135 121.912 242.074 121.597 242.074C121.261 242.074 120.969 242.143 120.719 242.283C120.472 242.419 120.28 242.611 120.143 242.858C120.01 243.105 119.943 243.395 119.943 243.727H118.938C118.938 243.216 119.055 242.767 119.291 242.381C119.527 241.994 119.848 241.693 120.254 241.477C120.663 241.261 121.122 241.153 121.631 241.153C122.142 241.153 122.595 241.261 122.99 241.477C123.385 241.693 123.695 241.984 123.919 242.351C124.143 242.717 124.256 243.125 124.256 243.574C124.256 243.895 124.197 244.209 124.081 244.516C123.967 244.82 123.768 245.159 123.484 245.534C123.203 245.906 122.812 246.361 122.312 246.898L120.352 248.994V249.062H124.409V250H118.903ZM129.016 250.119C128.374 250.119 127.827 249.945 127.375 249.595C126.923 249.243 126.578 248.733 126.339 248.065C126.101 247.395 125.982 246.585 125.982 245.636C125.982 244.693 126.101 243.888 126.339 243.22C126.581 242.55 126.928 242.038 127.379 241.686C127.834 241.331 128.379 241.153 129.016 241.153C129.652 241.153 130.196 241.331 130.648 241.686C131.102 242.038 131.449 242.55 131.688 243.22C131.929 243.888 132.05 244.693 132.05 245.636C132.05 246.585 131.93 247.395 131.692 248.065C131.453 248.733 131.108 249.243 130.656 249.595C130.205 249.945 129.658 250.119 129.016 250.119ZM129.016 249.182C129.652 249.182 130.146 248.875 130.499 248.261C130.851 247.648 131.027 246.773 131.027 245.636C131.027 244.881 130.946 244.237 130.784 243.706C130.625 243.175 130.395 242.77 130.094 242.491C129.795 242.213 129.436 242.074 129.016 242.074C128.385 242.074 127.892 242.385 127.537 243.007C127.182 243.626 127.004 244.503 127.004 245.636C127.004 246.392 127.084 247.034 127.243 247.562C127.402 248.091 127.631 248.493 127.929 248.768C128.23 249.044 128.592 249.182 129.016 249.182ZM136.737 241.273V250H135.68V242.381H135.629L133.499 243.795V242.722L135.68 241.273H136.737ZM142.043 250.119C141.457 250.119 140.94 250.016 140.491 249.808C140.045 249.598 139.697 249.31 139.447 248.943C139.197 248.574 139.074 248.153 139.077 247.682C139.074 247.312 139.146 246.972 139.294 246.659C139.442 246.344 139.643 246.081 139.899 245.871C140.158 245.658 140.446 245.523 140.764 245.466V245.415C140.347 245.307 140.014 245.072 139.767 244.712C139.52 244.348 139.398 243.935 139.401 243.472C139.398 243.028 139.51 242.632 139.737 242.283C139.964 241.933 140.277 241.658 140.675 241.456C141.075 241.254 141.531 241.153 142.043 241.153C142.548 241.153 143 241.254 143.398 241.456C143.795 241.658 144.108 241.933 144.335 242.283C144.565 242.632 144.682 243.028 144.685 243.472C144.682 243.935 144.555 244.348 144.305 244.712C144.058 245.072 143.73 245.307 143.321 245.415V245.466C143.636 245.523 143.92 245.658 144.173 245.871C144.426 246.081 144.628 246.344 144.778 246.659C144.929 246.972 145.006 247.312 145.009 247.682C145.006 248.153 144.878 248.574 144.625 248.943C144.375 249.31 144.027 249.598 143.581 249.808C143.138 250.016 142.625 250.119 142.043 250.119ZM142.043 249.182C142.438 249.182 142.778 249.118 143.065 248.99C143.352 248.862 143.574 248.682 143.73 248.449C143.886 248.216 143.966 247.943 143.969 247.631C143.966 247.301 143.881 247.01 143.713 246.757C143.545 246.504 143.317 246.305 143.027 246.161C142.74 246.016 142.412 245.943 142.043 245.943C141.67 245.943 141.338 246.016 141.045 246.161C140.756 246.305 140.527 246.504 140.359 246.757C140.195 247.01 140.114 247.301 140.116 247.631C140.114 247.943 140.189 248.216 140.342 248.449C140.499 248.682 140.722 248.862 141.011 248.99C141.301 249.118 141.645 249.182 142.043 249.182ZM142.043 245.04C142.355 245.04 142.632 244.977 142.874 244.852C143.118 244.727 143.31 244.553 143.449 244.328C143.588 244.104 143.659 243.841 143.662 243.54C143.659 243.244 143.589 242.987 143.453 242.768C143.317 242.547 143.128 242.376 142.886 242.257C142.645 242.135 142.364 242.074 142.043 242.074C141.716 242.074 141.43 242.135 141.186 242.257C140.942 242.376 140.753 242.547 140.619 242.768C140.486 242.987 140.42 243.244 140.423 243.54C140.42 243.841 140.487 244.104 140.624 244.328C140.763 244.553 140.955 244.727 141.199 244.852C141.443 244.977 141.724 245.04 142.043 245.04Z" fill="#AAB1B7"/>
<path d="M172.903 250V249.233L175.784 246.08C176.122 245.71 176.401 245.389 176.619 245.116C176.838 244.841 177 244.582 177.105 244.341C177.213 244.097 177.267 243.841 177.267 243.574C177.267 243.267 177.193 243.001 177.045 242.777C176.901 242.553 176.702 242.379 176.449 242.257C176.196 242.135 175.912 242.074 175.597 242.074C175.261 242.074 174.969 242.143 174.719 242.283C174.472 242.419 174.28 242.611 174.143 242.858C174.01 243.105 173.943 243.395 173.943 243.727H172.938C172.938 243.216 173.055 242.767 173.291 242.381C173.527 241.994 173.848 241.693 174.254 241.477C174.663 241.261 175.122 241.153 175.631 241.153C176.142 241.153 176.595 241.261 176.99 241.477C177.385 241.693 177.695 241.984 177.919 242.351C178.143 242.717 178.256 243.125 178.256 243.574C178.256 243.895 178.197 244.209 178.081 244.516C177.967 244.82 177.768 245.159 177.484 245.534C177.203 245.906 176.812 246.361 176.312 246.898L174.352 248.994V249.062H178.409V250H172.903ZM183.016 250.119C182.374 250.119 181.827 249.945 181.375 249.595C180.923 249.243 180.578 248.733 180.339 248.065C180.101 247.395 179.982 246.585 179.982 245.636C179.982 244.693 180.101 243.888 180.339 243.22C180.581 242.55 180.928 242.038 181.379 241.686C181.834 241.331 182.379 241.153 183.016 241.153C183.652 241.153 184.196 241.331 184.648 241.686C185.102 242.038 185.449 242.55 185.688 243.22C185.929 243.888 186.05 244.693 186.05 245.636C186.05 246.585 185.93 247.395 185.692 248.065C185.453 248.733 185.108 249.243 184.656 249.595C184.205 249.945 183.658 250.119 183.016 250.119ZM183.016 249.182C183.652 249.182 184.146 248.875 184.499 248.261C184.851 247.648 185.027 246.773 185.027 245.636C185.027 244.881 184.946 244.237 184.784 243.706C184.625 243.175 184.395 242.77 184.094 242.491C183.795 242.213 183.436 242.074 183.016 242.074C182.385 242.074 181.892 242.385 181.537 243.007C181.182 243.626 181.004 244.503 181.004 245.636C181.004 246.392 181.084 247.034 181.243 247.562C181.402 248.091 181.631 248.493 181.929 248.768C182.23 249.044 182.592 249.182 183.016 249.182ZM190.737 241.273V250H189.68V242.381H189.629L187.499 243.795V242.722L189.68 241.273H190.737ZM196.026 241.153C196.384 241.156 196.741 241.224 197.099 241.358C197.457 241.491 197.784 241.713 198.08 242.023C198.375 242.33 198.612 242.749 198.791 243.28C198.97 243.811 199.06 244.477 199.06 245.278C199.06 246.054 198.986 246.743 198.838 247.345C198.693 247.945 198.483 248.45 198.207 248.862C197.935 249.274 197.602 249.587 197.21 249.8C196.821 250.013 196.381 250.119 195.889 250.119C195.401 250.119 194.964 250.023 194.581 249.83C194.2 249.634 193.888 249.362 193.643 249.016C193.402 248.666 193.247 248.261 193.179 247.801H194.219C194.312 248.202 194.499 248.533 194.777 248.794C195.058 249.053 195.429 249.182 195.889 249.182C196.563 249.182 197.094 248.888 197.483 248.3C197.875 247.712 198.071 246.881 198.071 245.807H198.003C197.844 246.045 197.655 246.251 197.436 246.425C197.217 246.598 196.974 246.732 196.707 246.825C196.44 246.919 196.156 246.966 195.855 246.966C195.355 246.966 194.896 246.842 194.479 246.595C194.064 246.345 193.732 246.003 193.482 245.568C193.234 245.131 193.111 244.631 193.111 244.068C193.111 243.534 193.23 243.045 193.469 242.602C193.71 242.156 194.048 241.801 194.483 241.537C194.92 241.273 195.435 241.145 196.026 241.153ZM196.026 242.091C195.668 242.091 195.345 242.18 195.058 242.359C194.774 242.536 194.548 242.774 194.381 243.075C194.216 243.374 194.134 243.705 194.134 244.068C194.134 244.432 194.213 244.763 194.372 245.061C194.534 245.357 194.754 245.592 195.033 245.768C195.314 245.942 195.634 246.028 195.991 246.028C196.261 246.028 196.513 245.976 196.746 245.871C196.979 245.763 197.182 245.616 197.355 245.432C197.531 245.244 197.669 245.033 197.768 244.797C197.868 244.558 197.918 244.31 197.918 244.051C197.918 243.71 197.835 243.391 197.67 243.092C197.509 242.794 197.284 242.553 196.997 242.368C196.713 242.183 196.389 242.091 196.026 242.091Z" fill="#AAB1B7"/>
<path d="M226.903 250V249.233L229.784 246.08C230.122 245.71 230.401 245.389 230.619 245.116C230.838 244.841 231 244.582 231.105 244.341C231.213 244.097 231.267 243.841 231.267 243.574C231.267 243.267 231.193 243.001 231.045 242.777C230.901 242.553 230.702 242.379 230.449 242.257C230.196 242.135 229.912 242.074 229.597 242.074C229.261 242.074 228.969 242.143 228.719 242.283C228.472 242.419 228.28 242.611 228.143 242.858C228.01 243.105 227.943 243.395 227.943 243.727H226.938C226.938 243.216 227.055 242.767 227.291 242.381C227.527 241.994 227.848 241.693 228.254 241.477C228.663 241.261 229.122 241.153 229.631 241.153C230.142 241.153 230.595 241.261 230.99 241.477C231.385 241.693 231.695 241.984 231.919 242.351C232.143 242.717 232.256 243.125 232.256 243.574C232.256 243.895 232.197 244.209 232.081 244.516C231.967 244.82 231.768 245.159 231.484 245.534C231.203 245.906 230.812 246.361 230.312 246.898L228.352 248.994V249.062H232.409V250H226.903ZM237.016 250.119C236.374 250.119 235.827 249.945 235.375 249.595C234.923 249.243 234.578 248.733 234.339 248.065C234.101 247.395 233.982 246.585 233.982 245.636C233.982 244.693 234.101 243.888 234.339 243.22C234.581 242.55 234.928 242.038 235.379 241.686C235.834 241.331 236.379 241.153 237.016 241.153C237.652 241.153 238.196 241.331 238.648 241.686C239.102 242.038 239.449 242.55 239.688 243.22C239.929 243.888 240.05 244.693 240.05 245.636C240.05 246.585 239.93 247.395 239.692 248.065C239.453 248.733 239.108 249.243 238.656 249.595C238.205 249.945 237.658 250.119 237.016 250.119ZM237.016 249.182C237.652 249.182 238.146 248.875 238.499 248.261C238.851 247.648 239.027 246.773 239.027 245.636C239.027 244.881 238.946 244.237 238.784 243.706C238.625 243.175 238.395 242.77 238.094 242.491C237.795 242.213 237.436 242.074 237.016 242.074C236.385 242.074 235.892 242.385 235.537 243.007C235.182 243.626 235.004 244.503 235.004 245.636C235.004 246.392 235.084 247.034 235.243 247.562C235.402 248.091 235.631 248.493 235.929 248.768C236.23 249.044 236.592 249.182 237.016 249.182ZM241.669 250V249.233L244.55 246.08C244.888 245.71 245.166 245.389 245.385 245.116C245.604 244.841 245.766 244.582 245.871 244.341C245.979 244.097 246.033 243.841 246.033 243.574C246.033 243.267 245.959 243.001 245.811 242.777C245.666 242.553 245.467 242.379 245.214 242.257C244.962 242.135 244.678 242.074 244.362 242.074C244.027 242.074 243.734 242.143 243.484 242.283C243.237 242.419 243.045 242.611 242.909 242.858C242.776 243.105 242.709 243.395 242.709 243.727H241.703C241.703 243.216 241.821 242.767 242.057 242.381C242.293 241.994 242.614 241.693 243.02 241.477C243.429 241.261 243.888 241.153 244.396 241.153C244.908 241.153 245.361 241.261 245.756 241.477C246.151 241.693 246.46 241.984 246.685 242.351C246.909 242.717 247.021 243.125 247.021 243.574C247.021 243.895 246.963 244.209 246.847 244.516C246.733 244.82 246.534 245.159 246.25 245.534C245.969 245.906 245.578 246.361 245.078 246.898L243.118 248.994V249.062H247.175V250H241.669ZM251.781 250.119C251.139 250.119 250.592 249.945 250.141 249.595C249.689 249.243 249.344 248.733 249.105 248.065C248.866 247.395 248.747 246.585 248.747 245.636C248.747 244.693 248.866 243.888 249.105 243.22C249.347 242.55 249.693 242.038 250.145 241.686C250.599 241.331 251.145 241.153 251.781 241.153C252.418 241.153 252.962 241.331 253.413 241.686C253.868 242.038 254.214 242.55 254.453 243.22C254.695 243.888 254.815 244.693 254.815 245.636C254.815 246.585 254.696 247.395 254.457 248.065C254.219 248.733 253.874 249.243 253.422 249.595C252.97 249.945 252.423 250.119 251.781 250.119ZM251.781 249.182C252.418 249.182 252.912 248.875 253.264 248.261C253.616 247.648 253.793 246.773 253.793 245.636C253.793 244.881 253.712 244.237 253.55 243.706C253.391 243.175 253.161 242.77 252.859 242.491C252.561 242.213 252.202 242.074 251.781 242.074C251.151 242.074 250.658 242.385 250.303 243.007C249.947 243.626 249.77 244.503 249.77 245.636C249.77 246.392 249.849 247.034 250.009 247.562C250.168 248.091 250.396 248.493 250.695 248.768C250.996 249.044 251.358 249.182 251.781 249.182Z" fill="#925FE2"/>
<path d="M282.903 250V249.233L285.784 246.08C286.122 245.71 286.401 245.389 286.619 245.116C286.838 244.841 287 244.582 287.105 244.341C287.213 244.097 287.267 243.841 287.267 243.574C287.267 243.267 287.193 243.001 287.045 242.777C286.901 242.553 286.702 242.379 286.449 242.257C286.196 242.135 285.912 242.074 285.597 242.074C285.261 242.074 284.969 242.143 284.719 242.283C284.472 242.419 284.28 242.611 284.143 242.858C284.01 243.105 283.943 243.395 283.943 243.727H282.938C282.938 243.216 283.055 242.767 283.291 242.381C283.527 241.994 283.848 241.693 284.254 241.477C284.663 241.261 285.122 241.153 285.631 241.153C286.142 241.153 286.595 241.261 286.99 241.477C287.385 241.693 287.695 241.984 287.919 242.351C288.143 242.717 288.256 243.125 288.256 243.574C288.256 243.895 288.197 244.209 288.081 244.516C287.967 244.82 287.768 245.159 287.484 245.534C287.203 245.906 286.812 246.361 286.312 246.898L284.352 248.994V249.062H288.409V250H282.903ZM293.016 250.119C292.374 250.119 291.827 249.945 291.375 249.595C290.923 249.243 290.578 248.733 290.339 248.065C290.101 247.395 289.982 246.585 289.982 245.636C289.982 244.693 290.101 243.888 290.339 243.22C290.581 242.55 290.928 242.038 291.379 241.686C291.834 241.331 292.379 241.153 293.016 241.153C293.652 241.153 294.196 241.331 294.648 241.686C295.102 242.038 295.449 242.55 295.688 243.22C295.929 243.888 296.05 244.693 296.05 245.636C296.05 246.585 295.93 247.395 295.692 248.065C295.453 248.733 295.108 249.243 294.656 249.595C294.205 249.945 293.658 250.119 293.016 250.119ZM293.016 249.182C293.652 249.182 294.146 248.875 294.499 248.261C294.851 247.648 295.027 246.773 295.027 245.636C295.027 244.881 294.946 244.237 294.784 243.706C294.625 243.175 294.395 242.77 294.094 242.491C293.795 242.213 293.436 242.074 293.016 242.074C292.385 242.074 291.892 242.385 291.537 243.007C291.182 243.626 291.004 244.503 291.004 245.636C291.004 246.392 291.084 247.034 291.243 247.562C291.402 248.091 291.631 248.493 291.929 248.768C292.23 249.044 292.592 249.182 293.016 249.182ZM297.669 250V249.233L300.55 246.08C300.888 245.71 301.166 245.389 301.385 245.116C301.604 244.841 301.766 244.582 301.871 244.341C301.979 244.097 302.033 243.841 302.033 243.574C302.033 243.267 301.959 243.001 301.811 242.777C301.666 242.553 301.467 242.379 301.214 242.257C300.962 242.135 300.678 242.074 300.362 242.074C300.027 242.074 299.734 242.143 299.484 242.283C299.237 242.419 299.045 242.611 298.909 242.858C298.776 243.105 298.709 243.395 298.709 243.727H297.703C297.703 243.216 297.821 242.767 298.057 242.381C298.293 241.994 298.614 241.693 299.02 241.477C299.429 241.261 299.888 241.153 300.396 241.153C300.908 241.153 301.361 241.261 301.756 241.477C302.151 241.693 302.46 241.984 302.685 242.351C302.909 242.717 303.021 243.125 303.021 243.574C303.021 243.895 302.963 244.209 302.847 244.516C302.733 244.82 302.534 245.159 302.25 245.534C301.969 245.906 301.578 246.361 301.078 246.898L299.118 248.994V249.062H303.175V250H297.669ZM308.003 241.273V250H306.946V242.381H306.895L304.764 243.795V242.722L306.946 241.273H308.003Z" fill="#AAB1B7"/>
<path d="M336.903 250V249.233L339.784 246.08C340.122 245.71 340.401 245.389 340.619 245.116C340.838 244.841 341 244.582 341.105 244.341C341.213 244.097 341.267 243.841 341.267 243.574C341.267 243.267 341.193 243.001 341.045 242.777C340.901 242.553 340.702 242.379 340.449 242.257C340.196 242.135 339.912 242.074 339.597 242.074C339.261 242.074 338.969 242.143 338.719 242.283C338.472 242.419 338.28 242.611 338.143 242.858C338.01 243.105 337.943 243.395 337.943 243.727H336.938C336.938 243.216 337.055 242.767 337.291 242.381C337.527 241.994 337.848 241.693 338.254 241.477C338.663 241.261 339.122 241.153 339.631 241.153C340.142 241.153 340.595 241.261 340.99 241.477C341.385 241.693 341.695 241.984 341.919 242.351C342.143 242.717 342.256 243.125 342.256 243.574C342.256 243.895 342.197 244.209 342.081 244.516C341.967 244.82 341.768 245.159 341.484 245.534C341.203 245.906 340.812 246.361 340.312 246.898L338.352 248.994V249.062H342.409V250H336.903ZM347.016 250.119C346.374 250.119 345.827 249.945 345.375 249.595C344.923 249.243 344.578 248.733 344.339 248.065C344.101 247.395 343.982 246.585 343.982 245.636C343.982 244.693 344.101 243.888 344.339 243.22C344.581 242.55 344.928 242.038 345.379 241.686C345.834 241.331 346.379 241.153 347.016 241.153C347.652 241.153 348.196 241.331 348.648 241.686C349.102 242.038 349.449 242.55 349.688 243.22C349.929 243.888 350.05 244.693 350.05 245.636C350.05 246.585 349.93 247.395 349.692 248.065C349.453 248.733 349.108 249.243 348.656 249.595C348.205 249.945 347.658 250.119 347.016 250.119ZM347.016 249.182C347.652 249.182 348.146 248.875 348.499 248.261C348.851 247.648 349.027 246.773 349.027 245.636C349.027 244.881 348.946 244.237 348.784 243.706C348.625 243.175 348.395 242.77 348.094 242.491C347.795 242.213 347.436 242.074 347.016 242.074C346.385 242.074 345.892 242.385 345.537 243.007C345.182 243.626 345.004 244.503 345.004 245.636C345.004 246.392 345.084 247.034 345.243 247.562C345.402 248.091 345.631 248.493 345.929 248.768C346.23 249.044 346.592 249.182 347.016 249.182ZM351.669 250V249.233L354.55 246.08C354.888 245.71 355.166 245.389 355.385 245.116C355.604 244.841 355.766 244.582 355.871 244.341C355.979 244.097 356.033 243.841 356.033 243.574C356.033 243.267 355.959 243.001 355.811 242.777C355.666 242.553 355.467 242.379 355.214 242.257C354.962 242.135 354.678 242.074 354.362 242.074C354.027 242.074 353.734 242.143 353.484 242.283C353.237 242.419 353.045 242.611 352.909 242.858C352.776 243.105 352.709 243.395 352.709 243.727H351.703C351.703 243.216 351.821 242.767 352.057 242.381C352.293 241.994 352.614 241.693 353.02 241.477C353.429 241.261 353.888 241.153 354.396 241.153C354.908 241.153 355.361 241.261 355.756 241.477C356.151 241.693 356.46 241.984 356.685 242.351C356.909 242.717 357.021 243.125 357.021 243.574C357.021 243.895 356.963 244.209 356.847 244.516C356.733 244.82 356.534 245.159 356.25 245.534C355.969 245.906 355.578 246.361 355.078 246.898L353.118 248.994V249.062H357.175V250H351.669ZM358.935 250V249.233L361.815 246.08C362.153 245.71 362.432 245.389 362.651 245.116C362.869 244.841 363.031 244.582 363.136 244.341C363.244 244.097 363.298 243.841 363.298 243.574C363.298 243.267 363.224 243.001 363.077 242.777C362.932 242.553 362.733 242.379 362.48 242.257C362.227 242.135 361.943 242.074 361.628 242.074C361.293 242.074 361 242.143 360.75 242.283C360.503 242.419 360.311 242.611 360.175 242.858C360.041 243.105 359.974 243.395 359.974 243.727H358.969C358.969 243.216 359.087 242.767 359.322 242.381C359.558 241.994 359.879 241.693 360.286 241.477C360.695 241.261 361.153 241.153 361.662 241.153C362.173 241.153 362.626 241.261 363.021 241.477C363.416 241.693 363.726 241.984 363.95 242.351C364.175 242.717 364.287 243.125 364.287 243.574C364.287 243.895 364.229 244.209 364.112 244.516C363.999 244.82 363.8 245.159 363.516 245.534C363.234 245.906 362.844 246.361 362.344 246.898L360.384 248.994V249.062H364.44V250H358.935Z" fill="#AAB1B7"/>
<path d="M66 195C66 192.791 67.7909 191 70 191H86C88.2091 191 90 192.791 90 195V224H66V195Z" fill="#EFF2FF"/>
<path d="M120 132C120 129.791 121.791 128 124 128H140C142.209 128 144 129.791 144 132V224H120V132Z" fill="#EFF2FF"/>
<path d="M174 163C174 160.791 175.791 159 178 159H194C196.209 159 198 160.791 198 163V224H174V163Z" fill="#EFF2FF"/>
<path d="M228 129C228 126.791 229.791 125 232 125H248C250.209 125 252 126.791 252 129V224H228V129Z" fill="#925FE2"/>
<path d="M282 108C282 105.791 283.791 104 286 104H302C304.209 104 306 105.791 306 108V224H282V108Z" fill="#EFF2FF"/>
<path d="M336 132C336 129.791 337.791 128 340 128H356C358.209 128 360 129.791 360 132V224H336V132Z" fill="#EFF2FF"/>
<g filter="url(#filter0_d_6_1002)">
<rect x="261" y="28" width="102" height="35" rx="17.5" fill="white"/>
</g>
<path d="M277.119 40.8182H278.983L282.224 48.733H282.344L285.585 40.8182H287.45V51H285.988V43.6321H285.893L282.891 50.9851H281.678L278.675 43.6271H278.58V51H277.119V40.8182ZM292.78 51.1541C292.064 51.1541 291.44 50.9901 290.906 50.6619C290.372 50.3338 289.958 49.8748 289.663 49.2848C289.368 48.6948 289.221 48.0054 289.221 47.2166C289.221 46.4245 289.368 45.7318 289.663 45.1385C289.958 44.5452 290.372 44.0845 290.906 43.7564C291.44 43.4283 292.064 43.2642 292.78 43.2642C293.496 43.2642 294.121 43.4283 294.655 43.7564C295.188 44.0845 295.603 44.5452 295.898 45.1385C296.193 45.7318 296.34 46.4245 296.34 47.2166C296.34 48.0054 296.193 48.6948 295.898 49.2848C295.603 49.8748 295.188 50.3338 294.655 50.6619C294.121 50.9901 293.496 51.1541 292.78 51.1541ZM292.785 49.9062C293.249 49.9062 293.634 49.7836 293.939 49.5384C294.244 49.2931 294.469 48.9666 294.615 48.5589C294.764 48.1513 294.839 47.7022 294.839 47.2116C294.839 46.7244 294.764 46.277 294.615 45.8693C294.469 45.4583 294.244 45.1286 293.939 44.88C293.634 44.6314 293.249 44.5071 292.785 44.5071C292.318 44.5071 291.93 44.6314 291.622 44.88C291.317 45.1286 291.09 45.4583 290.941 45.8693C290.795 46.277 290.722 46.7244 290.722 47.2116C290.722 47.7022 290.795 48.1513 290.941 48.5589C291.09 48.9666 291.317 49.2931 291.622 49.5384C291.93 49.7836 292.318 49.9062 292.785 49.9062ZM299.486 46.4659V51H297.999V43.3636H299.426V44.6065H299.521C299.696 44.2022 299.971 43.8774 300.346 43.6321C300.724 43.3868 301.199 43.2642 301.773 43.2642C302.293 43.2642 302.749 43.3736 303.14 43.5923C303.531 43.8078 303.834 44.1293 304.05 44.5568C304.265 44.9844 304.373 45.513 304.373 46.1428V51H302.886V46.3217C302.886 45.7682 302.742 45.3357 302.454 45.0241C302.165 44.7093 301.769 44.5518 301.266 44.5518C300.921 44.5518 300.614 44.6264 300.346 44.7756C300.081 44.9247 299.87 45.1435 299.714 45.4318C299.562 45.7169 299.486 46.0616 299.486 46.4659ZM309.931 43.3636V44.5568H305.76V43.3636H309.931ZM306.879 41.5341H308.365V48.7578C308.365 49.0462 308.408 49.2633 308.494 49.4091C308.58 49.5516 308.692 49.6494 308.827 49.7024C308.967 49.7521 309.117 49.777 309.28 49.777C309.399 49.777 309.504 49.7687 309.593 49.7521C309.683 49.7356 309.752 49.7223 309.802 49.7124L310.07 50.9403C309.984 50.9735 309.862 51.0066 309.702 51.0398C309.543 51.0762 309.344 51.0961 309.106 51.0994C308.715 51.1061 308.35 51.0365 308.012 50.8906C307.674 50.7448 307.401 50.5194 307.192 50.2145C306.983 49.9096 306.879 49.5268 306.879 49.0661V41.5341ZM313.226 46.4659V51H311.74V40.8182H313.206V44.6065H313.301C313.48 44.1955 313.753 43.8691 314.121 43.6271C314.489 43.3852 314.969 43.2642 315.563 43.2642C316.086 43.2642 316.544 43.3719 316.935 43.5874C317.329 43.8028 317.634 44.1243 317.85 44.5518C318.068 44.9761 318.178 45.5064 318.178 46.1428V51H316.691V46.3217C316.691 45.7616 316.547 45.3274 316.259 45.0192C315.97 44.7076 315.569 44.5518 315.056 44.5518C314.704 44.5518 314.389 44.6264 314.111 44.7756C313.836 44.9247 313.619 45.1435 313.46 45.4318C313.304 45.7169 313.226 46.0616 313.226 46.4659ZM321.648 40.8182V51H320.161V40.8182H321.648ZM324.587 53.8636C324.365 53.8636 324.163 53.8454 323.981 53.8089C323.799 53.7758 323.663 53.7393 323.573 53.6996L323.931 52.4815C324.203 52.5545 324.445 52.5859 324.657 52.576C324.869 52.5661 325.056 52.4865 325.219 52.3374C325.384 52.1882 325.53 51.9446 325.656 51.6065L325.84 51.0994L323.046 43.3636H324.637L326.571 49.2898H326.651L328.585 43.3636H330.18L327.033 52.0192C326.888 52.4169 326.702 52.7533 326.477 53.0284C326.251 53.3068 325.983 53.5156 325.671 53.6548C325.36 53.794 324.998 53.8636 324.587 53.8636Z" fill="#696D7A"/>
<path d="M346.107 47.7632L349.746 44.3694C349.827 44.295 349.89 44.2064 349.934 44.1089C349.978 44.0114 350 43.9067 350 43.8011C350 43.6954 349.978 43.5908 349.934 43.4932C349.89 43.3957 349.827 43.3072 349.746 43.2328C349.585 43.0837 349.368 43 349.141 43C348.914 43 348.697 43.0837 348.536 43.2328L345.498 46.0663L342.459 43.2328C342.298 43.0837 342.081 43 341.854 43C341.627 43 341.41 43.0837 341.249 43.2328C341.169 43.3076 341.106 43.3963 341.064 43.4938C341.021 43.5913 340.999 43.6957 341 43.8011C340.999 43.9064 341.021 44.0108 341.064 44.1084C341.106 44.2059 341.169 44.2946 341.249 44.3694L344.888 47.7632C344.968 47.8383 345.063 47.8978 345.167 47.9384C345.272 47.9791 345.384 48 345.498 48C345.611 48 345.723 47.9791 345.828 47.9384C345.932 47.8978 346.027 47.8383 346.107 47.7632Z" fill="#A5B4CB"/>
<defs>
<filter id="filter0_d_6_1002" x="243" y="22" width="138" height="71" filterUnits="userSpaceOnUse" color-interpolation-filters="sRGB">
<feFlood flood-opacity="0" result="BackgroundImageFix"/>
<feColorMatrix in="SourceAlpha" type="matrix" values="0 0 0 0 0 0 0 0 0 0 0 0 0 0 0 0 0 0 127 0" result="hardAlpha"/>
<feMorphology radius="8" operator="erode" in="SourceAlpha" result="effect1_dropShadow_6_1002"/>
<feOffset dy="12"/>
<feGaussianBlur stdDeviation="13"/>
<feComposite in2="hardAlpha" operator="out"/>
<feColorMatrix type="matrix" values="0 0 0 0 0.390603 0 0 0 0 0.390156 0 0 0 0 0.4125 0 0 0 0.13 0"/>
<feBlend mode="normal" in2="BackgroundImageFix" result="effect1_dropShadow_6_1002"/>
<feBlend mode="normal" in="SourceGraphic" in2="effect1_dropShadow_6_1002" result="shape"/>
</filter>
</defs>
</svg>
