<svg width="23" height="143" viewBox="0 0 23 143" fill="none" xmlns="http://www.w3.org/2000/svg">
<path d="M3.69886 12.1193C3.11364 12.1193 2.59659 12.0156 2.14773 11.8082C1.7017 11.598 1.35369 11.3097 1.10369 10.9432C0.853693 10.5739 0.730114 10.1534 0.732955 9.68182C0.730114 9.3125 0.802557 8.97159 0.950284 8.65909C1.09801 8.34375 1.29972 8.08097 1.5554 7.87074C1.81392 7.65767 2.10227 7.52273 2.42045 7.46591V7.41477C2.00284 7.30682 1.67045 7.07244 1.4233 6.71165C1.17614 6.34801 1.05398 5.93466 1.05682 5.47159C1.05398 5.02841 1.16619 4.6321 1.39347 4.28267C1.62074 3.93324 1.93324 3.65767 2.33097 3.45597C2.73153 3.25426 3.1875 3.15341 3.69886 3.15341C4.20455 3.15341 4.65625 3.25426 5.05398 3.45597C5.4517 3.65767 5.7642 3.93324 5.99148 4.28267C6.22159 4.6321 6.33807 5.02841 6.34091 5.47159C6.33807 5.93466 6.21165 6.34801 5.96165 6.71165C5.71449 7.07244 5.38636 7.30682 4.97727 7.41477V7.46591C5.29261 7.52273 5.5767 7.65767 5.82955 7.87074C6.08239 8.08097 6.28409 8.34375 6.43466 8.65909C6.58523 8.97159 6.66193 9.3125 6.66477 9.68182C6.66193 10.1534 6.53409 10.5739 6.28125 10.9432C6.03125 11.3097 5.68324 11.598 5.23722 11.8082C4.79403 12.0156 4.28125 12.1193 3.69886 12.1193ZM3.69886 11.1818C4.09375 11.1818 4.43466 11.1179 4.72159 10.9901C5.00852 10.8622 5.23011 10.6818 5.38636 10.4489C5.54261 10.2159 5.62216 9.94318 5.625 9.63068C5.62216 9.30114 5.53693 9.00994 5.36932 8.7571C5.2017 8.50426 4.97301 8.3054 4.68324 8.16051C4.39631 8.01562 4.06818 7.94318 3.69886 7.94318C3.3267 7.94318 2.99432 8.01562 2.7017 8.16051C2.41193 8.3054 2.18324 8.50426 2.01562 8.7571C1.85085 9.00994 1.76989 9.30114 1.77273 9.63068C1.76989 9.94318 1.84517 10.2159 1.99858 10.4489C2.15483 10.6818 2.37784 10.8622 2.66761 10.9901C2.95739 11.1179 3.30114 11.1818 3.69886 11.1818ZM3.69886 7.03977C4.01136 7.03977 4.28835 6.97727 4.52983 6.85227C4.77415 6.72727 4.96591 6.55256 5.10511 6.32812C5.24432 6.10369 5.31534 5.84091 5.31818 5.53977C5.31534 5.24432 5.24574 4.98722 5.10938 4.76847C4.97301 4.54687 4.78409 4.37642 4.54261 4.2571C4.30114 4.13494 4.01989 4.07386 3.69886 4.07386C3.37216 4.07386 3.08665 4.13494 2.84233 4.2571C2.59801 4.37642 2.40909 4.54687 2.27557 4.76847C2.14205 4.98722 2.0767 5.24432 2.07955 5.53977C2.0767 5.84091 2.14347 6.10369 2.27983 6.32812C2.41903 6.55256 2.6108 6.72727 2.85511 6.85227C3.09943 6.97727 3.38068 7.03977 3.69886 7.03977ZM11.1445 12.1193C10.5025 12.1193 9.95561 11.9446 9.50391 11.5952C9.0522 11.2429 8.70703 10.733 8.46839 10.0653C8.22976 9.39489 8.11044 8.58523 8.11044 7.63636C8.11044 6.69318 8.22976 5.88778 8.46839 5.22017C8.70987 4.54972 9.05646 4.03835 9.50817 3.68608C9.96271 3.33097 10.5082 3.15341 11.1445 3.15341C11.7809 3.15341 12.3249 3.33097 12.7766 3.68608C13.2312 4.03835 13.5778 4.54972 13.8164 5.22017C14.0579 5.88778 14.1786 6.69318 14.1786 7.63636C14.1786 8.58523 14.0593 9.39489 13.8207 10.0653C13.582 10.733 13.2369 11.2429 12.7852 11.5952C12.3335 11.9446 11.7866 12.1193 11.1445 12.1193ZM11.1445 11.1818C11.7809 11.1818 12.2752 10.875 12.6275 10.2614C12.9798 9.64773 13.1559 8.77273 13.1559 7.63636C13.1559 6.88068 13.0749 6.23722 12.913 5.70597C12.7539 5.17472 12.5238 4.76989 12.2227 4.49148C11.9244 4.21307 11.565 4.07386 11.1445 4.07386C10.5138 4.07386 10.021 4.38494 9.66584 5.0071C9.31072 5.62642 9.13317 6.50284 9.13317 7.63636C9.13317 8.39205 9.21271 9.03409 9.3718 9.5625C9.53089 10.0909 9.75959 10.4929 10.0579 10.7685C10.359 11.044 10.7212 11.1818 11.1445 11.1818ZM18.6445 12.1193C18.0025 12.1193 17.4556 11.9446 17.0039 11.5952C16.5522 11.2429 16.207 10.733 15.9684 10.0653C15.7298 9.39489 15.6104 8.58523 15.6104 7.63636C15.6104 6.69318 15.7298 5.88778 15.9684 5.22017C16.2099 4.54972 16.5565 4.03835 17.0082 3.68608C17.4627 3.33097 18.0082 3.15341 18.6445 3.15341C19.2809 3.15341 19.8249 3.33097 20.2766 3.68608C20.7312 4.03835 21.0778 4.54972 21.3164 5.22017C21.5579 5.88778 21.6786 6.69318 21.6786 7.63636C21.6786 8.58523 21.5593 9.39489 21.3207 10.0653C21.082 10.733 20.7369 11.2429 20.2852 11.5952C19.8335 11.9446 19.2866 12.1193 18.6445 12.1193ZM18.6445 11.1818C19.2809 11.1818 19.7752 10.875 20.1275 10.2614C20.4798 9.64773 20.6559 8.77273 20.6559 7.63636C20.6559 6.88068 20.5749 6.23722 20.413 5.70597C20.2539 5.17472 20.0238 4.76989 19.7227 4.49148C19.4244 4.21307 19.065 4.07386 18.6445 4.07386C18.0138 4.07386 17.521 4.38494 17.1658 5.0071C16.8107 5.62642 16.6332 6.50284 16.6332 7.63636C16.6332 8.39205 16.7127 9.03409 16.8718 9.5625C17.0309 10.0909 17.2596 10.4929 17.5579 10.7685C17.859 11.044 18.2212 11.1818 18.6445 11.1818Z" fill="#AAB1B7"/>
<path d="M3.80114 44.1193C3.44318 44.1136 3.08523 44.0455 2.72727 43.9148C2.36932 43.7841 2.04261 43.5639 1.74716 43.2543C1.4517 42.9418 1.21449 42.5199 1.03551 41.9886C0.856534 41.4545 0.767045 40.7841 0.767045 39.9773C0.767045 39.2045 0.839489 38.5199 0.984375 37.9233C1.12926 37.3239 1.33949 36.8196 1.61506 36.4105C1.89063 35.9986 2.22301 35.6861 2.61222 35.473C3.00426 35.2599 3.44602 35.1534 3.9375 35.1534C4.42614 35.1534 4.8608 35.2514 5.24148 35.4474C5.625 35.6406 5.9375 35.9105 6.17898 36.2571C6.42045 36.6037 6.5767 37.0028 6.64773 37.4545H5.60795C5.51136 37.0625 5.32386 36.7372 5.04545 36.4787C4.76705 36.2202 4.39773 36.0909 3.9375 36.0909C3.26136 36.0909 2.72869 36.3849 2.33949 36.973C1.95313 37.5611 1.75852 38.3864 1.75568 39.4489H1.82386C1.98295 39.2074 2.17188 39.0014 2.39062 38.831C2.61222 38.6577 2.85653 38.5241 3.12358 38.4304C3.39063 38.3366 3.6733 38.2898 3.97159 38.2898C4.47159 38.2898 4.92898 38.4148 5.34375 38.6648C5.75852 38.9119 6.09091 39.2543 6.34091 39.6918C6.59091 40.1264 6.71591 40.625 6.71591 41.1875C6.71591 41.7273 6.59517 42.2216 6.35369 42.6705C6.11222 43.1165 5.77273 43.4716 5.33523 43.7358C4.90057 43.9972 4.3892 44.125 3.80114 44.1193ZM3.80114 43.1818C4.15909 43.1818 4.48011 43.0923 4.7642 42.9134C5.05114 42.7344 5.27699 42.4943 5.44176 42.1932C5.60938 41.892 5.69318 41.5568 5.69318 41.1875C5.69318 40.8267 5.61222 40.4986 5.45028 40.2031C5.29119 39.9048 5.07102 39.6676 4.78977 39.4915C4.51136 39.3153 4.19318 39.2273 3.83523 39.2273C3.56534 39.2273 3.31392 39.2812 3.08097 39.3892C2.84801 39.4943 2.64347 39.6392 2.46733 39.8239C2.29403 40.0085 2.15767 40.2202 2.05824 40.4588C1.95881 40.6946 1.90909 40.9432 1.90909 41.2045C1.90909 41.5511 1.99006 41.875 2.15199 42.1761C2.31676 42.4773 2.54119 42.7202 2.82528 42.9048C3.11222 43.0895 3.4375 43.1818 3.80114 43.1818ZM11.2383 44.1193C10.5962 44.1193 10.0494 43.9446 9.59766 43.5952C9.14595 43.2429 8.80078 42.733 8.56214 42.0653C8.32351 41.3949 8.20419 40.5852 8.20419 39.6364C8.20419 38.6932 8.32351 37.8878 8.56214 37.2202C8.80362 36.5497 9.15021 36.0384 9.60192 35.6861C10.0565 35.331 10.6019 35.1534 11.2383 35.1534C11.8746 35.1534 12.4187 35.331 12.8704 35.6861C13.3249 36.0384 13.6715 36.5497 13.9102 37.2202C14.1516 37.8878 14.2724 38.6932 14.2724 39.6364C14.2724 40.5852 14.1531 41.3949 13.9144 42.0653C13.6758 42.733 13.3306 43.2429 12.8789 43.5952C12.4272 43.9446 11.8803 44.1193 11.2383 44.1193ZM11.2383 43.1818C11.8746 43.1818 12.369 42.875 12.7212 42.2614C13.0735 41.6477 13.2496 40.7727 13.2496 39.6364C13.2496 38.8807 13.1687 38.2372 13.0067 37.706C12.8477 37.1747 12.6175 36.7699 12.3164 36.4915C12.0181 36.2131 11.6587 36.0739 11.2383 36.0739C10.6076 36.0739 10.1147 36.3849 9.75959 37.0071C9.40447 37.6264 9.22692 38.5028 9.22692 39.6364C9.22692 40.392 9.30646 41.0341 9.46555 41.5625C9.62464 42.0909 9.85334 42.4929 10.1516 42.7685C10.4528 43.044 10.815 43.1818 11.2383 43.1818ZM18.7383 44.1193C18.0962 44.1193 17.5494 43.9446 17.0977 43.5952C16.646 43.2429 16.3008 42.733 16.0621 42.0653C15.8235 41.3949 15.7042 40.5852 15.7042 39.6364C15.7042 38.6932 15.8235 37.8878 16.0621 37.2202C16.3036 36.5497 16.6502 36.0384 17.1019 35.6861C17.5565 35.331 18.1019 35.1534 18.7383 35.1534C19.3746 35.1534 19.9187 35.331 20.3704 35.6861C20.8249 36.0384 21.1715 36.5497 21.4102 37.2202C21.6516 37.8878 21.7724 38.6932 21.7724 39.6364C21.7724 40.5852 21.6531 41.3949 21.4144 42.0653C21.1758 42.733 20.8306 43.2429 20.3789 43.5952C19.9272 43.9446 19.3803 44.1193 18.7383 44.1193ZM18.7383 43.1818C19.3746 43.1818 19.869 42.875 20.2212 42.2614C20.5735 41.6477 20.7496 40.7727 20.7496 39.6364C20.7496 38.8807 20.6687 38.2372 20.5067 37.706C20.3477 37.1747 20.1175 36.7699 19.8164 36.4915C19.5181 36.2131 19.1587 36.0739 18.7383 36.0739C18.1076 36.0739 17.6147 36.3849 17.2596 37.0071C16.9045 37.6264 16.7269 38.5028 16.7269 39.6364C16.7269 40.392 16.8065 41.0341 16.9656 41.5625C17.1246 42.0909 17.3533 42.4929 17.6516 42.7685C17.9528 43.044 18.315 43.1818 18.7383 43.1818Z" fill="#AAB1B7"/>
<path d="M0.698864 74.2102V73.3409L4.53409 67.2727H5.16477V68.6193H4.73864L1.84091 73.2045V73.2727H7.00568V74.2102H0.698864ZM4.80682 76V73.946V73.5412V67.2727H5.8125V76H4.80682ZM11.4492 76.1193C10.8072 76.1193 10.2603 75.9446 9.80859 75.5952C9.35689 75.2429 9.01172 74.733 8.77308 74.0653C8.53445 73.3949 8.41513 72.5852 8.41513 71.6364C8.41513 70.6932 8.53445 69.8878 8.77308 69.2202C9.01456 68.5497 9.36115 68.0384 9.81286 67.6861C10.2674 67.331 10.8129 67.1534 11.4492 67.1534C12.0856 67.1534 12.6296 67.331 13.0813 67.6861C13.5359 68.0384 13.8825 68.5497 14.1211 69.2202C14.3626 69.8878 14.4833 70.6932 14.4833 71.6364C14.4833 72.5852 14.364 73.3949 14.1254 74.0653C13.8867 74.733 13.5415 75.2429 13.0898 75.5952C12.6381 75.9446 12.0913 76.1193 11.4492 76.1193ZM11.4492 75.1818C12.0856 75.1818 12.5799 74.875 12.9322 74.2614C13.2844 73.6477 13.4606 72.7727 13.4606 71.6364C13.4606 70.8807 13.3796 70.2372 13.2177 69.706C13.0586 69.1747 12.8285 68.7699 12.5273 68.4915C12.229 68.2131 11.8697 68.0739 11.4492 68.0739C10.8185 68.0739 10.3256 68.3849 9.97053 69.0071C9.61541 69.6264 9.43786 70.5028 9.43786 71.6364C9.43786 72.392 9.5174 73.0341 9.67649 73.5625C9.83558 74.0909 10.0643 74.4929 10.3626 74.7685C10.6637 75.044 11.0259 75.1818 11.4492 75.1818ZM18.9492 76.1193C18.3072 76.1193 17.7603 75.9446 17.3086 75.5952C16.8569 75.2429 16.5117 74.733 16.2731 74.0653C16.0344 73.3949 15.9151 72.5852 15.9151 71.6364C15.9151 70.6932 16.0344 69.8878 16.2731 69.2202C16.5146 68.5497 16.8612 68.0384 17.3129 67.6861C17.7674 67.331 18.3129 67.1534 18.9492 67.1534C19.5856 67.1534 20.1296 67.331 20.5813 67.6861C21.0359 68.0384 21.3825 68.5497 21.6211 69.2202C21.8626 69.8878 21.9833 70.6932 21.9833 71.6364C21.9833 72.5852 21.864 73.3949 21.6254 74.0653C21.3867 74.733 21.0415 75.2429 20.5898 75.5952C20.1381 75.9446 19.5913 76.1193 18.9492 76.1193ZM18.9492 75.1818C19.5856 75.1818 20.0799 74.875 20.4322 74.2614C20.7844 73.6477 20.9606 72.7727 20.9606 71.6364C20.9606 70.8807 20.8796 70.2372 20.7177 69.706C20.5586 69.1747 20.3285 68.7699 20.0273 68.4915C19.729 68.2131 19.3697 68.0739 18.9492 68.0739C18.3185 68.0739 17.8256 68.3849 17.4705 69.0071C17.1154 69.6264 16.9379 70.5028 16.9379 71.6364C16.9379 72.392 17.0174 73.0341 17.1765 73.5625C17.3356 74.0909 17.5643 74.4929 17.8626 74.7685C18.1637 75.044 18.5259 75.1818 18.9492 75.1818Z" fill="#AAB1B7"/>
<path d="M0.903409 108V107.233L3.78409 104.08C4.12216 103.71 4.40057 103.389 4.61932 103.116C4.83807 102.841 5 102.582 5.10511 102.341C5.21307 102.097 5.26705 101.841 5.26705 101.574C5.26705 101.267 5.19318 101.001 5.04545 100.777C4.90057 100.553 4.7017 100.379 4.44886 100.257C4.19602 100.135 3.91193 100.074 3.59659 100.074C3.26136 100.074 2.96875 100.143 2.71875 100.283C2.47159 100.419 2.27983 100.611 2.14347 100.858C2.00994 101.105 1.94318 101.395 1.94318 101.727H0.9375C0.9375 101.216 1.0554 100.767 1.29119 100.381C1.52699 99.9943 1.84801 99.6932 2.25426 99.4773C2.66335 99.2614 3.12216 99.1534 3.63068 99.1534C4.14205 99.1534 4.59517 99.2614 4.99006 99.4773C5.38494 99.6932 5.6946 99.9844 5.91903 100.351C6.14347 100.717 6.25568 101.125 6.25568 101.574C6.25568 101.895 6.19744 102.209 6.08097 102.516C5.96733 102.82 5.76847 103.159 5.48438 103.534C5.20312 103.906 4.8125 104.361 4.3125 104.898L2.35227 106.994V107.062H6.40909V108H0.903409ZM11.0156 108.119C10.3736 108.119 9.8267 107.945 9.375 107.595C8.9233 107.243 8.57813 106.733 8.33949 106.065C8.10085 105.395 7.98153 104.585 7.98153 103.636C7.98153 102.693 8.10085 101.888 8.33949 101.22C8.58097 100.55 8.92756 100.038 9.37926 99.6861C9.83381 99.331 10.3793 99.1534 11.0156 99.1534C11.652 99.1534 12.196 99.331 12.6477 99.6861C13.1023 100.038 13.4489 100.55 13.6875 101.22C13.929 101.888 14.0497 102.693 14.0497 103.636C14.0497 104.585 13.9304 105.395 13.6918 106.065C13.4531 106.733 13.108 107.243 12.6562 107.595C12.2045 107.945 11.6577 108.119 11.0156 108.119ZM11.0156 107.182C11.652 107.182 12.1463 106.875 12.4986 106.261C12.8509 105.648 13.027 104.773 13.027 103.636C13.027 102.881 12.946 102.237 12.7841 101.706C12.625 101.175 12.3949 100.77 12.0938 100.491C11.7955 100.213 11.4361 100.074 11.0156 100.074C10.3849 100.074 9.89205 100.385 9.53693 101.007C9.18182 101.626 9.00426 102.503 9.00426 103.636C9.00426 104.392 9.08381 105.034 9.2429 105.562C9.40199 106.091 9.63068 106.493 9.92898 106.768C10.2301 107.044 10.5923 107.182 11.0156 107.182ZM18.5156 108.119C17.8736 108.119 17.3267 107.945 16.875 107.595C16.4233 107.243 16.0781 106.733 15.8395 106.065C15.6009 105.395 15.4815 104.585 15.4815 103.636C15.4815 102.693 15.6009 101.888 15.8395 101.22C16.081 100.55 16.4276 100.038 16.8793 99.6861C17.3338 99.331 17.8793 99.1534 18.5156 99.1534C19.152 99.1534 19.696 99.331 20.1477 99.6861C20.6023 100.038 20.9489 100.55 21.1875 101.22C21.429 101.888 21.5497 102.693 21.5497 103.636C21.5497 104.585 21.4304 105.395 21.1918 106.065C20.9531 106.733 20.608 107.243 20.1562 107.595C19.7045 107.945 19.1577 108.119 18.5156 108.119ZM18.5156 107.182C19.152 107.182 19.6463 106.875 19.9986 106.261C20.3509 105.648 20.527 104.773 20.527 103.636C20.527 102.881 20.446 102.237 20.2841 101.706C20.125 101.175 19.8949 100.77 19.5938 100.491C19.2955 100.213 18.9361 100.074 18.5156 100.074C17.8849 100.074 17.392 100.385 17.0369 101.007C16.6818 101.626 16.5043 102.503 16.5043 103.636C16.5043 104.392 16.5838 105.034 16.7429 105.562C16.902 106.091 17.1307 106.493 17.429 106.768C17.7301 107.044 18.0923 107.182 18.5156 107.182Z" fill="#AAB1B7"/>
<path d="M18.75 140.119C18.108 140.119 17.5611 139.945 17.1094 139.595C16.6577 139.243 16.3125 138.733 16.0739 138.065C15.8352 137.395 15.7159 136.585 15.7159 135.636C15.7159 134.693 15.8352 133.888 16.0739 133.22C16.3153 132.55 16.6619 132.038 17.1136 131.686C17.5682 131.331 18.1136 131.153 18.75 131.153C19.3864 131.153 19.9304 131.331 20.3821 131.686C20.8366 132.038 21.1832 132.55 21.4219 133.22C21.6634 133.888 21.7841 134.693 21.7841 135.636C21.7841 136.585 21.6648 137.395 21.4261 138.065C21.1875 138.733 20.8423 139.243 20.3906 139.595C19.9389 139.945 19.392 140.119 18.75 140.119ZM18.75 139.182C19.3864 139.182 19.8807 138.875 20.233 138.261C20.5852 137.648 20.7614 136.773 20.7614 135.636C20.7614 134.881 20.6804 134.237 20.5185 133.706C20.3594 133.175 20.1293 132.77 19.8281 132.491C19.5298 132.213 19.1705 132.074 18.75 132.074C18.1193 132.074 17.6264 132.385 17.2713 133.007C16.9162 133.626 16.7386 134.503 16.7386 135.636C16.7386 136.392 16.8182 137.034 16.9773 137.562C17.1364 138.091 17.3651 138.493 17.6634 138.768C17.9645 139.044 18.3267 139.182 18.75 139.182Z" fill="#AAB1B7"/>
</svg>
