<svg width="166" height="166" viewBox="0 0 166 166" fill="none" xmlns="http://www.w3.org/2000/svg">
<path d="M67.47 25.0442C99.478 16.4677 132.378 35.4626 140.955 67.4706C149.531 99.4785 130.536 132.379 98.5283 140.955C66.5204 149.532 33.6202 130.537 25.0436 98.5289C16.4671 66.5209 35.4621 33.6207 67.47 25.0442ZM97.0397 135.4C125.979 127.645 143.154 97.8989 135.399 68.9592C127.645 40.0195 97.8984 22.8454 68.9587 30.5997C40.0189 38.3541 22.8448 68.1005 30.5992 97.0402C38.3536 125.98 68.1 143.154 97.0397 135.4Z" fill="#EFF2FF"/>
<path d="M68.9751 30.661C67.1433 23.8247 71.2178 16.6649 78.2778 16.1662C87.517 15.5136 96.8394 16.7806 105.644 19.9424C118.492 24.5563 129.624 32.9849 137.55 44.0998C145.476 55.2148 149.818 68.4857 149.994 82.136C150.17 95.7864 146.172 109.165 138.535 120.48C130.898 131.796 119.987 140.509 107.262 145.452C94.5369 150.396 80.6055 151.334 67.3324 148.142C54.0594 144.95 42.0782 137.78 32.9927 127.591C26.7666 120.608 22.1039 112.437 19.2526 103.625C17.0739 96.8907 22.1894 90.4335 29.2146 89.5747C36.2398 88.7159 42.4602 93.8697 45.4197 100.299C47.1245 104.002 49.3772 107.455 52.122 110.533C57.732 116.824 65.13 121.252 73.3256 123.223C81.5212 125.194 90.1233 124.614 97.9805 121.562C105.838 118.509 112.575 113.13 117.29 106.143C122.006 99.1557 124.474 90.895 124.366 82.4664C124.257 74.0378 121.576 65.8436 116.682 58.9805C111.788 52.1174 104.915 46.9131 96.9814 44.0642C93.0999 42.6703 89.0554 41.8728 84.983 41.6773C77.9136 41.3379 70.8069 37.4974 68.9751 30.661Z" fill="#925FE2"/>
</svg>
