<svg width="19" height="18" viewBox="0 0 19 18" fill="none" xmlns="http://www.w3.org/2000/svg">
<path d="M11.4853 14.5872C14.5789 14.5872 16.1261 14.5872 17.0868 13.6257C18.0483 12.6651 18.0483 11.1178 18.0483 8.02419C18.0483 4.93056 18.0483 3.38333 17.0868 2.42267C16.1261 1.46119 14.5789 1.46119 11.4853 1.46119H8.20375C5.11011 1.46119 3.56289 1.46119 2.60223 2.42267C1.64075 3.38333 1.64075 4.93056 1.64075 8.02419C1.64075 11.1178 1.64075 12.6651 2.60223 13.6257C3.13793 14.1622 3.85576 14.3993 4.92225 14.5035" stroke="white" stroke-width="1.64075" stroke-linecap="round" stroke-linejoin="round"/>
<path d="M11.4853 14.5872C10.4713 14.5872 9.35394 14.9974 8.33422 15.5265C6.69511 16.3773 5.87555 16.803 5.47193 16.5315C5.0683 16.2608 5.1446 15.4199 5.29801 13.7389L5.33246 13.3566" stroke="white" stroke-width="1.64075" stroke-linecap="round"/>
</svg>
